<?xml version="1.0" encoding="UTF-8"?>
<svg xmlns="http://www.w3.org/2000/svg" xmlns:xlink="http://www.w3.org/1999/xlink" width="130px" height="130px" viewBox="0 0 130 130" version="1.1">
<g id="surface1">
<path style=" stroke:none;fill-rule:nonzero;fill:rgb(92.54902%,81.176472%,44.705883%);fill-opacity:1;" d="M 62.921875 12.925781 C 63.070312 12.925781 63.21875 12.925781 63.371094 12.925781 C 64.269531 12.925781 65.15625 12.964844 66.050781 13.03125 C 66.546875 13.066406 67.039062 13.070312 67.535156 13.066406 C 67.621094 13.066406 67.707031 13.0625 67.796875 13.0625 C 68 13.0625 68.203125 13.058594 68.410156 13.058594 C 68.410156 13.132812 68.410156 13.210938 68.410156 13.289062 C 68.542969 13.253906 68.542969 13.253906 68.683594 13.21875 C 69.347656 13.148438 69.972656 13.308594 70.605469 13.519531 C 70.769531 13.523438 70.9375 13.519531 71.101562 13.511719 C 71.5625 13.507812 71.902344 13.59375 72.339844 13.75 C 72.644531 13.800781 72.953125 13.832031 73.261719 13.867188 C 73.671875 13.917969 74.015625 14 74.394531 14.15625 C 74.828125 14.328125 75.226562 14.382812 75.691406 14.410156 C 75.917969 14.445312 75.917969 14.445312 76.265625 14.675781 C 76.496094 14.703125 76.726562 14.726562 76.953125 14.75 C 77.296875 14.808594 77.574219 14.980469 77.882812 15.136719 C 78.152344 15.179688 78.421875 15.21875 78.695312 15.253906 C 78.808594 15.328125 78.921875 15.40625 79.039062 15.484375 C 79.148438 15.5 79.257812 15.519531 79.371094 15.535156 C 79.761719 15.605469 79.976562 15.746094 80.3125 15.945312 C 80.417969 15.964844 80.519531 15.980469 80.628906 15.996094 C 81.058594 16.070312 81.398438 16.226562 81.792969 16.410156 C 82.058594 16.535156 82.058594 16.535156 82.414062 16.648438 C 82.773438 16.765625 83.09375 16.933594 83.429688 17.101562 C 83.511719 17.121094 83.59375 17.140625 83.675781 17.160156 C 83.894531 17.21875 83.894531 17.21875 84.109375 17.382812 C 84.523438 17.6875 85.015625 17.796875 85.511719 17.910156 C 85.511719 17.988281 85.511719 18.0625 85.511719 18.140625 C 85.625 18.140625 85.738281 18.140625 85.859375 18.140625 C 85.859375 18.21875 85.859375 18.292969 85.859375 18.375 C 86.046875 18.375 86.238281 18.375 86.4375 18.375 C 86.4375 18.449219 86.4375 18.527344 86.4375 18.605469 C 86.558594 18.636719 86.679688 18.667969 86.804688 18.699219 C 87.296875 18.851562 87.65625 19.050781 88.058594 19.371094 C 88.292969 19.535156 88.46875 19.59375 88.746094 19.644531 C 88.746094 19.71875 88.746094 19.796875 88.746094 19.875 C 88.847656 19.90625 88.945312 19.9375 89.050781 19.96875 C 89.433594 20.105469 89.78125 20.25 90.132812 20.453125 C 90.171875 20.566406 90.210938 20.683594 90.25 20.800781 C 90.582031 20.9375 90.582031 20.9375 90.941406 21.03125 C 91.058594 21.070312 91.171875 21.105469 91.289062 21.144531 C 91.289062 21.222656 91.289062 21.300781 91.289062 21.378906 C 91.441406 21.414062 91.59375 21.453125 91.75 21.492188 C 91.75 21.570312 91.75 21.644531 91.75 21.726562 C 92.039062 21.78125 92.039062 21.78125 92.328125 21.839844 C 92.328125 21.917969 92.328125 21.992188 92.328125 22.070312 C 92.394531 22.105469 92.460938 22.136719 92.53125 22.171875 C 92.773438 22.292969 93.011719 22.414062 93.253906 22.535156 C 93.253906 22.609375 93.253906 22.6875 93.253906 22.765625 C 93.367188 22.765625 93.480469 22.765625 93.601562 22.765625 C 93.601562 22.839844 93.601562 22.917969 93.601562 22.996094 C 93.6875 23.027344 93.769531 23.058594 93.859375 23.089844 C 94.164062 23.222656 94.390625 23.351562 94.640625 23.574219 C 94.640625 23.648438 94.640625 23.726562 94.640625 23.804688 C 94.753906 23.832031 94.863281 23.863281 94.980469 23.890625 C 95.097656 23.9375 95.214844 23.984375 95.332031 24.035156 C 95.433594 24.28125 95.433594 24.28125 95.449219 24.496094 C 95.601562 24.535156 95.753906 24.574219 95.910156 24.613281 C 95.910156 24.691406 95.910156 24.765625 95.910156 24.84375 C 96.023438 24.867188 96.023438 24.867188 96.136719 24.886719 C 96.214844 24.910156 96.292969 24.933594 96.375 24.960938 C 96.410156 25.035156 96.449219 25.113281 96.488281 25.191406 C 96.585938 25.246094 96.679688 25.300781 96.777344 25.355469 C 97.066406 25.539062 97.066406 25.539062 97.183594 25.882812 C 97.292969 25.90625 97.292969 25.90625 97.40625 25.929688 C 97.484375 25.953125 97.5625 25.976562 97.644531 26 C 97.722656 26.191406 97.796875 26.386719 97.875 26.578125 C 98.109375 26.679688 98.109375 26.679688 98.335938 26.691406 C 98.335938 26.769531 98.335938 26.847656 98.335938 26.925781 C 98.453125 26.960938 98.566406 27 98.683594 27.039062 C 98.914062 27.269531 98.914062 27.269531 99.023438 27.507812 C 99.136719 27.773438 99.136719 27.773438 99.492188 27.847656 C 99.746094 28.074219 99.746094 28.074219 99.957031 28.3125 C 99.957031 28.386719 99.957031 28.464844 99.957031 28.542969 C 100.070312 28.582031 100.183594 28.617188 100.300781 28.65625 C 100.46875 28.808594 100.46875 28.808594 100.648438 29.003906 C 100.761719 29.113281 100.761719 29.113281 100.871094 29.222656 C 101.125 29.480469 101.347656 29.761719 101.574219 30.042969 C 101.824219 30.304688 102.082031 30.550781 102.347656 30.796875 C 102.609375 31.082031 102.652344 31.1875 102.730469 31.546875 C 102.84375 31.585938 102.957031 31.621094 103.074219 31.664062 C 103.113281 31.816406 103.152344 31.96875 103.191406 32.125 C 103.304688 32.164062 103.417969 32.199219 103.539062 32.238281 C 103.734375 32.398438 103.734375 32.398438 103.882812 32.585938 C 103.882812 32.699219 103.882812 32.816406 103.882812 32.933594 C 104 32.972656 104.113281 33.007812 104.230469 33.046875 C 104.460938 33.394531 104.460938 33.394531 104.460938 33.742188 C 104.578125 33.78125 104.691406 33.816406 104.808594 33.859375 C 104.808594 33.972656 104.808594 34.085938 104.808594 34.203125 C 104.960938 34.28125 105.113281 34.355469 105.269531 34.4375 C 105.269531 34.511719 105.269531 34.585938 105.269531 34.667969 C 105.339844 34.734375 105.410156 34.804688 105.480469 34.875 C 105.746094 35.140625 105.894531 35.382812 106.078125 35.707031 C 106.261719 35.976562 106.449219 36.246094 106.632812 36.515625 C 106.773438 36.746094 106.773438 36.746094 106.773438 36.976562 C 106.847656 37.015625 106.925781 37.054688 107.003906 37.09375 C 107.140625 37.285156 107.140625 37.285156 107.285156 37.527344 C 107.335938 37.609375 107.386719 37.691406 107.4375 37.777344 C 107.484375 37.855469 107.535156 37.9375 107.582031 38.019531 C 107.6875 38.183594 107.6875 38.183594 107.792969 38.351562 C 107.929688 38.59375 107.929688 38.59375 107.929688 38.828125 C 108.003906 38.863281 108.082031 38.902344 108.160156 38.941406 C 108.28125 39.171875 108.394531 39.402344 108.507812 39.636719 C 108.585938 39.773438 108.667969 39.910156 108.753906 40.046875 C 108.941406 40.398438 109.015625 40.636719 109.085938 41.023438 C 109.160156 41.0625 109.238281 41.097656 109.316406 41.136719 C 109.5625 41.507812 109.734375 41.878906 109.894531 42.292969 C 109.929688 42.371094 109.96875 42.445312 110.007812 42.523438 C 110.125 42.753906 110.125 42.753906 110.238281 43.050781 C 110.355469 43.355469 110.355469 43.355469 110.585938 43.679688 C 110.667969 43.871094 110.742188 44.0625 110.816406 44.257812 C 110.875 44.390625 110.933594 44.523438 110.992188 44.664062 C 111.046875 44.796875 111.105469 44.929688 111.164062 45.066406 C 111.203125 45.15625 111.242188 45.242188 111.28125 45.332031 C 111.386719 45.621094 111.472656 45.90625 111.554688 46.199219 C 111.691406 46.671875 111.871094 47.085938 112.097656 47.515625 C 112.355469 48.023438 112.476562 48.570312 112.609375 49.117188 C 112.710938 49.511719 112.84375 49.890625 112.980469 50.269531 C 113.175781 50.832031 113.316406 51.382812 113.414062 51.96875 C 113.464844 52.234375 113.464844 52.234375 113.59375 52.464844 C 113.71875 52.714844 113.742188 52.894531 113.757812 53.167969 C 113.792969 53.570312 113.871094 53.921875 113.996094 54.304688 C 114.15625 54.800781 114.21875 55.265625 114.253906 55.785156 C 114.277344 56.066406 114.277344 56.066406 114.40625 56.40625 C 114.519531 56.753906 114.519531 57.042969 114.507812 57.40625 C 114.519531 57.792969 114.605469 58.152344 114.6875 58.527344 C 114.757812 58.878906 114.800781 59.226562 114.832031 59.582031 C 114.859375 59.8125 114.886719 60.046875 114.921875 60.277344 C 114.980469 60.757812 114.996094 61.234375 114.992188 61.71875 C 114.992188 61.808594 114.992188 61.898438 114.992188 61.988281 C 114.992188 62.277344 114.992188 62.566406 114.992188 62.859375 C 114.992188 63.058594 114.992188 63.261719 114.992188 63.464844 C 114.992188 63.886719 114.992188 64.308594 114.992188 64.734375 C 114.992188 65.277344 114.992188 65.816406 114.992188 66.359375 C 114.992188 66.777344 114.992188 67.195312 114.992188 67.613281 C 114.992188 67.8125 114.992188 68.011719 114.992188 68.210938 C 114.992188 68.492188 114.992188 68.769531 114.992188 69.046875 C 114.992188 69.132812 114.992188 69.214844 114.992188 69.300781 C 114.992188 69.652344 114.972656 69.921875 114.863281 70.257812 C 114.84375 70.417969 114.824219 70.574219 114.8125 70.734375 C 114.773438 71.109375 114.714844 71.460938 114.625 71.824219 C 114.527344 72.230469 114.515625 72.59375 114.53125 73.011719 C 114.503906 73.433594 114.363281 73.828125 114.246094 74.234375 C 114.152344 74.550781 114.152344 74.550781 114.167969 74.960938 C 114.167969 75.382812 114.066406 75.636719 113.90625 76.023438 C 113.816406 76.285156 113.785156 76.519531 113.765625 76.792969 C 113.722656 77.289062 113.558594 77.660156 113.359375 78.117188 C 113.335938 78.269531 113.316406 78.429688 113.300781 78.585938 C 113.242188 79.050781 113.109375 79.320312 112.898438 79.734375 C 112.855469 80.003906 112.816406 80.273438 112.78125 80.542969 C 112.707031 80.65625 112.628906 80.769531 112.550781 80.890625 C 112.503906 81.15625 112.464844 81.425781 112.433594 81.699219 C 112.359375 81.699219 112.28125 81.699219 112.203125 81.699219 C 112.214844 81.792969 112.222656 81.886719 112.234375 81.988281 C 112.199219 82.445312 112.066406 82.703125 111.851562 83.097656 C 111.71875 83.359375 111.675781 83.605469 111.625 83.894531 C 111.550781 84.046875 111.472656 84.203125 111.394531 84.355469 C 111.316406 84.585938 111.238281 84.816406 111.164062 85.050781 C 111.089844 85.050781 111.011719 85.050781 110.933594 85.050781 C 110.925781 85.160156 110.917969 85.269531 110.910156 85.382812 C 110.824219 85.988281 110.523438 86.480469 110.238281 87.011719 C 110.097656 87.292969 109.957031 87.574219 109.8125 87.859375 C 109.746094 87.992188 109.679688 88.125 109.609375 88.261719 C 109.457031 88.574219 109.328125 88.886719 109.199219 89.207031 C 108.898438 89.765625 108.898438 89.765625 108.621094 89.902344 C 108.539062 90.167969 108.460938 90.4375 108.390625 90.710938 C 108.316406 90.710938 108.238281 90.710938 108.160156 90.710938 C 108.160156 90.863281 108.160156 91.015625 108.160156 91.171875 C 108.082031 91.171875 108.007812 91.171875 107.929688 91.171875 C 107.902344 91.300781 107.871094 91.429688 107.84375 91.5625 C 107.699219 91.980469 107.699219 91.980469 107.460938 92.121094 C 107.386719 92.152344 107.3125 92.179688 107.234375 92.214844 C 107.164062 92.421875 107.164062 92.421875 107.121094 92.675781 C 106.941406 93.097656 106.738281 93.421875 106.433594 93.757812 C 106.0625 94.171875 105.847656 94.597656 105.617188 95.101562 C 105.542969 95.101562 105.464844 95.101562 105.386719 95.101562 C 105.386719 95.214844 105.386719 95.332031 105.386719 95.449219 C 105.308594 95.449219 105.234375 95.449219 105.15625 95.449219 C 105.117188 95.5625 105.078125 95.675781 105.039062 95.796875 C 104.964844 95.796875 104.886719 95.796875 104.808594 95.796875 C 104.796875 95.859375 104.785156 95.925781 104.773438 95.992188 C 104.644531 96.421875 104.433594 96.75 104.117188 97.066406 C 103.9375 97.277344 103.761719 97.492188 103.589844 97.707031 C 103.535156 97.761719 103.480469 97.816406 103.421875 97.875 C 103.347656 97.875 103.269531 97.875 103.191406 97.875 C 103.183594 97.9375 103.175781 98 103.167969 98.0625 C 102.992188 98.585938 102.574219 98.957031 102.1875 99.335938 C 101.949219 99.578125 101.816406 99.761719 101.6875 100.070312 C 101.613281 100.070312 101.535156 100.070312 101.457031 100.070312 C 101.417969 100.183594 101.382812 100.300781 101.34375 100.417969 C 101.25 100.453125 101.15625 100.488281 101.0625 100.527344 C 100.699219 100.675781 100.695312 100.769531 100.53125 101.109375 C 100.421875 101.257812 100.308594 101.402344 100.1875 101.542969 C 100.125 101.617188 100.066406 101.6875 100.007812 101.757812 C 99.839844 101.917969 99.839844 101.917969 99.609375 101.917969 C 99.570312 102.035156 99.53125 102.148438 99.492188 102.265625 C 98.976562 102.730469 98.976562 102.730469 98.683594 102.730469 C 98.644531 102.84375 98.609375 102.957031 98.570312 103.074219 C 98.492188 103.074219 98.417969 103.074219 98.335938 103.074219 C 98.3125 103.160156 98.289062 103.246094 98.265625 103.335938 C 98.058594 103.746094 97.796875 103.875 97.414062 104.117188 C 97.335938 104.230469 97.261719 104.34375 97.183594 104.460938 C 97.066406 104.460938 96.953125 104.460938 96.835938 104.460938 C 96.757812 104.613281 96.683594 104.765625 96.605469 104.925781 C 96.488281 104.925781 96.375 104.925781 96.257812 104.925781 C 96.230469 104.992188 96.207031 105.0625 96.179688 105.132812 C 95.988281 105.453125 95.769531 105.550781 95.449219 105.734375 C 95.371094 105.847656 95.296875 105.960938 95.21875 106.078125 C 95.105469 106.117188 94.988281 106.15625 94.871094 106.195312 C 94.792969 106.273438 94.71875 106.347656 94.640625 106.425781 C 94.4375 106.578125 94.230469 106.71875 94.023438 106.863281 C 93.816406 107.007812 93.816406 107.007812 93.601562 107.234375 C 93.4375 107.347656 93.273438 107.460938 93.109375 107.566406 C 92.96875 107.660156 92.96875 107.660156 92.828125 107.753906 C 92.738281 107.8125 92.652344 107.871094 92.558594 107.929688 C 92.441406 108.011719 92.320312 108.089844 92.199219 108.175781 C 91.949219 108.339844 91.699219 108.484375 91.441406 108.628906 C 91.074219 108.820312 91.074219 108.820312 90.898438 109.019531 C 90.652344 109.253906 90.390625 109.394531 90.089844 109.554688 C 89.980469 109.613281 89.875 109.671875 89.761719 109.730469 C 89.441406 109.894531 89.441406 109.894531 89.117188 110.015625 C 88.84375 110.101562 88.84375 110.101562 88.746094 110.355469 C 88.515625 110.433594 88.285156 110.507812 88.054688 110.585938 C 88.015625 110.664062 87.976562 110.738281 87.9375 110.816406 C 87.707031 110.941406 87.707031 110.941406 87.425781 111.0625 C 87.332031 111.105469 87.238281 111.144531 87.144531 111.1875 C 86.898438 111.28125 86.898438 111.28125 86.667969 111.28125 C 86.667969 111.355469 86.667969 111.433594 86.667969 111.511719 C 86.550781 111.558594 86.4375 111.605469 86.320312 111.65625 C 86.007812 111.789062 85.699219 111.933594 85.394531 112.089844 C 84.980469 112.300781 84.554688 112.484375 84.125 112.667969 C 84.046875 112.710938 83.96875 112.753906 83.886719 112.796875 C 83.660156 112.898438 83.660156 112.898438 83.292969 112.957031 C 83.1875 112.972656 83.078125 112.992188 82.96875 113.011719 C 82.929688 113.089844 82.890625 113.164062 82.851562 113.246094 C 82.625 113.324219 82.394531 113.402344 82.160156 113.476562 C 82.003906 113.550781 81.851562 113.628906 81.699219 113.707031 C 81.226562 113.914062 80.738281 114.054688 80.242188 114.195312 C 79.980469 114.28125 79.75 114.390625 79.503906 114.515625 C 79.308594 114.554688 79.117188 114.59375 78.925781 114.628906 C 78.792969 114.683594 78.792969 114.683594 78.65625 114.738281 C 78.34375 114.863281 78.035156 114.957031 77.710938 115.042969 C 77.605469 115.070312 77.5 115.101562 77.390625 115.128906 C 77.183594 115.183594 76.976562 115.226562 76.765625 115.269531 C 76.484375 115.316406 76.484375 115.316406 76.1875 115.453125 C 76.097656 115.488281 76.011719 115.519531 75.917969 115.554688 C 75.84375 115.519531 75.765625 115.480469 75.6875 115.441406 C 75.6875 115.515625 75.6875 115.59375 75.6875 115.671875 C 75.625 115.675781 75.558594 115.683594 75.488281 115.6875 C 74.914062 115.742188 74.394531 115.851562 73.839844 116.019531 C 73.714844 116.035156 73.59375 116.050781 73.464844 116.066406 C 73.09375 116.125 72.761719 116.207031 72.402344 116.3125 C 71.945312 116.441406 71.570312 116.492188 71.09375 116.46875 C 70.617188 116.488281 70.160156 116.628906 69.699219 116.742188 C 68.949219 116.914062 68.230469 116.949219 67.460938 116.9375 C 67.140625 116.941406 66.832031 116.96875 66.511719 117 C 65.472656 117.082031 64.433594 117.074219 63.390625 117.074219 C 63.046875 117.074219 62.703125 117.074219 62.359375 117.074219 C 61.222656 117.074219 60.085938 117.058594 58.949219 117.007812 C 58.851562 117.003906 58.75 116.996094 58.644531 116.992188 C 57.535156 116.9375 56.480469 116.8125 55.398438 116.550781 C 54.988281 116.476562 54.609375 116.476562 54.195312 116.480469 C 54.105469 116.445312 54.019531 116.410156 53.929688 116.371094 C 53.621094 116.25 53.402344 116.222656 53.074219 116.199219 C 52.546875 116.15625 52.085938 116.03125 51.582031 115.867188 C 51.324219 115.792969 51.089844 115.753906 50.824219 115.730469 C 50.351562 115.667969 50.007812 115.511719 49.574219 115.324219 C 49.441406 115.304688 49.304688 115.285156 49.167969 115.265625 C 48.71875 115.203125 48.371094 115.046875 47.957031 114.863281 C 47.828125 114.839844 47.828125 114.839844 47.699219 114.816406 C 47.183594 114.707031 46.707031 114.496094 46.21875 114.304688 C 45.753906 114.125 45.328125 114.015625 44.835938 113.9375 C 44.257812 113.734375 43.710938 113.453125 43.164062 113.183594 C 42.757812 112.992188 42.390625 112.84375 41.945312 112.78125 C 41.945312 112.707031 41.945312 112.628906 41.945312 112.550781 C 41.3125 112.367188 41.3125 112.367188 40.675781 112.203125 C 40.675781 112.128906 40.675781 112.050781 40.675781 111.972656 C 40.609375 111.960938 40.546875 111.945312 40.480469 111.933594 C 40.183594 111.847656 39.9375 111.730469 39.664062 111.589844 C 39.5625 111.539062 39.460938 111.488281 39.355469 111.433594 C 39.257812 111.382812 39.160156 111.332031 39.058594 111.28125 C 38.894531 111.199219 38.730469 111.117188 38.566406 111.035156 C 38.492188 110.996094 38.417969 110.960938 38.34375 110.921875 C 38.140625 110.820312 37.941406 110.726562 37.738281 110.628906 C 37.441406 110.472656 37.441406 110.472656 37.324219 110.238281 C 37.03125 110.164062 37.03125 110.164062 36.746094 110.125 C 36.746094 110.046875 36.746094 109.972656 36.746094 109.894531 C 36.441406 109.769531 36.136719 109.652344 35.824219 109.546875 C 35.824219 109.46875 35.824219 109.394531 35.824219 109.316406 C 35.726562 109.292969 35.632812 109.269531 35.53125 109.242188 C 35.089844 109.070312 34.785156 108.84375 34.417969 108.546875 C 34.195312 108.371094 34.195312 108.371094 33.859375 108.273438 C 33.859375 108.199219 33.859375 108.125 33.859375 108.042969 C 33.742188 108.042969 33.628906 108.042969 33.511719 108.042969 C 33.511719 107.96875 33.511719 107.890625 33.511719 107.8125 C 33.425781 107.804688 33.339844 107.792969 33.25 107.785156 C 32.871094 107.679688 32.730469 107.523438 32.472656 107.234375 C 32.394531 107.195312 32.316406 107.160156 32.238281 107.121094 C 32.238281 107.042969 32.238281 106.96875 32.238281 106.890625 C 32.117188 106.847656 32.117188 106.847656 31.988281 106.804688 C 31.621094 106.640625 31.367188 106.4375 31.0625 106.171875 C 30.648438 105.824219 30.230469 105.5 29.777344 105.199219 C 29.339844 104.902344 29.027344 104.59375 28.699219 104.179688 C 28.460938 103.90625 28.152344 103.738281 27.847656 103.539062 C 27.710938 103.371094 27.574219 103.203125 27.445312 103.035156 C 27.15625 102.71875 26.808594 102.480469 26.460938 102.234375 C 26.21875 102.027344 26.132812 101.859375 26 101.574219 C 25.925781 101.539062 25.851562 101.5 25.777344 101.464844 C 25.539062 101.34375 25.539062 101.34375 25.378906 101.074219 C 25.144531 100.6875 24.847656 100.46875 24.496094 100.1875 C 24.152344 99.78125 24.152344 99.78125 24.152344 99.492188 C 24.035156 99.457031 23.921875 99.417969 23.804688 99.378906 C 23.445312 99.054688 23.199219 98.773438 22.996094 98.335938 C 22.902344 98.246094 22.902344 98.246094 22.808594 98.148438 C 22.730469 98.070312 22.730469 98.070312 22.648438 97.992188 C 22.648438 97.914062 22.648438 97.839844 22.648438 97.761719 C 22.535156 97.722656 22.421875 97.683594 22.300781 97.644531 C 22.144531 97.417969 21.988281 97.1875 21.839844 96.953125 C 21.765625 96.875 21.6875 96.796875 21.609375 96.71875 C 21.53125 96.644531 21.457031 96.566406 21.378906 96.488281 C 21.378906 96.375 21.378906 96.261719 21.378906 96.140625 C 21.300781 96.140625 21.226562 96.140625 21.144531 96.140625 C 21.144531 96.027344 21.144531 95.914062 21.144531 95.796875 C 21.070312 95.796875 20.996094 95.796875 20.914062 95.796875 C 20.914062 95.679688 20.914062 95.566406 20.914062 95.449219 C 20.839844 95.449219 20.761719 95.449219 20.683594 95.449219 C 20.519531 95.214844 20.519531 95.214844 20.324219 94.894531 C 19.960938 94.304688 19.570312 93.753906 19.148438 93.207031 C 18.9375 92.882812 18.828125 92.582031 18.71875 92.214844 C 18.644531 92.214844 18.566406 92.214844 18.488281 92.214844 C 18.488281 92.0625 18.488281 91.90625 18.488281 91.75 C 18.375 91.714844 18.261719 91.675781 18.140625 91.636719 C 17.796875 91.03125 17.796875 91.03125 17.796875 90.710938 C 17.71875 90.671875 17.644531 90.636719 17.566406 90.597656 C 17.464844 90.421875 17.375 90.242188 17.289062 90.0625 C 17.117188 89.703125 16.941406 89.355469 16.734375 89.015625 C 16.570312 88.714844 16.476562 88.503906 16.394531 88.183594 C 16.359375 88.0625 16.328125 87.945312 16.292969 87.820312 C 16.21875 87.785156 16.140625 87.746094 16.0625 87.707031 C 15.933594 87.433594 15.839844 87.152344 15.746094 86.863281 C 15.71875 86.769531 15.6875 86.675781 15.65625 86.582031 C 15.628906 86.488281 15.601562 86.398438 15.574219 86.308594 C 15.503906 86.066406 15.503906 86.066406 15.253906 85.972656 C 15.167969 85.785156 15.09375 85.589844 15.023438 85.394531 C 14.980469 85.304688 14.941406 85.210938 14.898438 85.113281 C 14.789062 84.816406 14.789062 84.816406 14.734375 84.441406 C 14.703125 84.285156 14.703125 84.285156 14.675781 84.125 C 14.597656 84.085938 14.523438 84.046875 14.445312 84.007812 C 14.359375 83.796875 14.359375 83.796875 14.277344 83.53125 C 14.171875 83.195312 14.058594 82.882812 13.917969 82.558594 C 13.773438 82.214844 13.679688 81.886719 13.597656 81.527344 C 13.414062 80.84375 13.171875 80.171875 12.941406 79.503906 C 12.816406 79.125 12.734375 78.75 12.652344 78.363281 C 12.59375 78.097656 12.59375 78.097656 12.480469 77.769531 C 12.421875 77.539062 12.363281 77.3125 12.304688 77.082031 C 12.277344 76.960938 12.246094 76.84375 12.214844 76.71875 C 12.1875 76.609375 12.160156 76.496094 12.132812 76.382812 C 12.113281 76.300781 12.089844 76.21875 12.066406 76.132812 C 12 75.839844 11.972656 75.546875 11.9375 75.246094 C 11.902344 75 11.851562 74.761719 11.792969 74.519531 C 11.652344 73.921875 11.582031 73.316406 11.5 72.710938 C 11.449219 72.328125 11.449219 72.328125 11.308594 71.925781 C 11.1875 71.4375 11.207031 71 11.214844 70.5 C 11.214844 69.96875 11.152344 69.449219 11.09375 68.921875 C 10.972656 67.722656 10.941406 66.535156 10.949219 65.328125 C 10.949219 65 10.949219 64.671875 10.945312 64.34375 C 10.945312 63.144531 10.996094 61.96875 11.128906 60.777344 C 11.191406 60.222656 11.21875 59.683594 11.210938 59.121094 C 11.199219 58.585938 11.277344 58.175781 11.441406 57.660156 C 11.464844 57.476562 11.480469 57.292969 11.496094 57.105469 C 11.558594 56.386719 11.671875 55.679688 11.910156 54.996094 C 12.003906 54.707031 12.042969 54.480469 12.070312 54.179688 C 12.132812 53.511719 12.304688 52.878906 12.480469 52.230469 C 12.523438 52.070312 12.523438 52.070312 12.566406 51.90625 C 12.625 51.695312 12.683594 51.484375 12.742188 51.273438 C 12.796875 51.0625 12.855469 50.851562 12.910156 50.636719 C 13.074219 50.003906 13.273438 49.402344 13.535156 48.796875 C 13.644531 48.535156 13.644531 48.535156 13.6875 48.253906 C 13.761719 47.902344 13.890625 47.605469 14.03125 47.277344 C 14.199219 46.886719 14.359375 46.507812 14.464844 46.101562 C 14.558594 45.761719 14.558594 45.761719 14.789062 45.414062 C 14.871094 45.183594 14.945312 44.953125 15.023438 44.71875 C 15.292969 44.046875 15.617188 43.402344 15.945312 42.753906 C 16.085938 42.480469 16.226562 42.203125 16.367188 41.925781 C 16.429688 41.792969 16.496094 41.664062 16.566406 41.53125 C 16.699219 41.25 16.820312 40.976562 16.9375 40.691406 C 17.101562 40.328125 17.101562 40.328125 17.332031 40.214844 C 17.332031 40.097656 17.332031 39.984375 17.332031 39.867188 C 17.410156 39.867188 17.484375 39.867188 17.566406 39.867188 C 17.640625 39.601562 17.71875 39.332031 17.796875 39.058594 C 17.871094 39.058594 17.949219 39.058594 18.027344 39.058594 C 18.054688 38.960938 18.082031 38.867188 18.113281 38.769531 C 18.28125 38.304688 18.492188 37.875 18.71875 37.441406 C 18.796875 37.441406 18.871094 37.441406 18.949219 37.441406 C 18.988281 37.289062 19.027344 37.132812 19.066406 36.976562 C 19.144531 36.976562 19.21875 36.976562 19.296875 36.976562 C 19.3125 36.910156 19.332031 36.839844 19.347656 36.769531 C 19.398438 36.566406 19.464844 36.367188 19.527344 36.167969 C 19.605469 36.167969 19.679688 36.167969 19.761719 36.167969 C 19.898438 35.898438 20.011719 35.648438 20.105469 35.359375 C 20.183594 35.359375 20.257812 35.359375 20.335938 35.359375 C 20.367188 35.277344 20.394531 35.199219 20.425781 35.113281 C 20.589844 34.738281 20.785156 34.417969 21.03125 34.089844 C 21.105469 34.089844 21.183594 34.089844 21.261719 34.089844 C 21.316406 33.953125 21.316406 33.953125 21.371094 33.816406 C 21.492188 33.511719 21.492188 33.511719 21.609375 33.28125 C 21.683594 33.28125 21.761719 33.28125 21.839844 33.28125 C 21.878906 33.164062 21.917969 33.050781 21.957031 32.933594 C 22.03125 32.933594 22.109375 32.933594 22.1875 32.933594 C 22.1875 32.820312 22.1875 32.703125 22.1875 32.585938 C 22.320312 32.449219 22.453125 32.3125 22.59375 32.183594 C 22.78125 31.992188 22.9375 31.785156 23.097656 31.570312 C 23.625 30.851562 24.214844 30.210938 24.84375 29.582031 C 24.921875 29.46875 24.996094 29.351562 25.074219 29.234375 C 25.152344 29.234375 25.226562 29.234375 25.304688 29.234375 C 25.34375 29.121094 25.382812 29.007812 25.421875 28.890625 C 25.5 28.890625 25.574219 28.890625 25.652344 28.890625 C 25.691406 28.773438 25.730469 28.660156 25.769531 28.542969 C 25.9375 28.398438 26.105469 28.253906 26.277344 28.117188 C 26.664062 27.796875 27.003906 27.425781 27.351562 27.0625 C 27.617188 26.808594 27.617188 26.808594 27.847656 26.808594 C 27.847656 26.730469 27.847656 26.65625 27.847656 26.578125 C 28.003906 26.421875 28.003906 26.421875 28.21875 26.253906 C 28.644531 25.898438 29.039062 25.519531 29.414062 25.113281 C 29.609375 24.9375 29.8125 24.84375 30.042969 24.730469 C 30.082031 24.652344 30.121094 24.578125 30.160156 24.496094 C 30.273438 24.460938 30.390625 24.421875 30.507812 24.382812 C 30.542969 24.304688 30.582031 24.230469 30.621094 24.152344 C 30.738281 24.113281 30.851562 24.074219 30.96875 24.035156 C 31.125 23.882812 31.277344 23.730469 31.429688 23.574219 C 31.582031 23.457031 31.738281 23.339844 31.894531 23.226562 C 31.96875 23.167969 32.042969 23.113281 32.121094 23.054688 C 32.535156 22.738281 32.945312 22.449219 33.394531 22.1875 C 33.472656 22.109375 33.546875 22.035156 33.625 21.957031 C 33.816406 21.875 34.007812 21.796875 34.203125 21.726562 C 34.203125 21.648438 34.203125 21.570312 34.203125 21.492188 C 34.320312 21.492188 34.433594 21.492188 34.550781 21.492188 C 34.550781 21.417969 34.550781 21.339844 34.550781 21.261719 C 34.703125 21.261719 34.855469 21.261719 35.011719 21.261719 C 35.011719 21.1875 35.011719 21.109375 35.011719 21.03125 C 35.089844 21.03125 35.167969 21.03125 35.246094 21.03125 C 35.28125 20.957031 35.320312 20.878906 35.359375 20.800781 C 35.523438 20.699219 35.695312 20.605469 35.867188 20.519531 C 36.214844 20.335938 36.476562 20.164062 36.746094 19.875 C 36.988281 19.738281 37.230469 19.636719 37.492188 19.535156 C 37.796875 19.417969 37.796875 19.417969 38.089844 19.226562 C 38.363281 19.066406 38.363281 19.066406 38.710938 19.066406 C 38.710938 18.992188 38.710938 18.914062 38.710938 18.835938 C 38.789062 18.808594 38.863281 18.777344 38.941406 18.75 C 39.378906 18.566406 39.792969 18.355469 40.214844 18.140625 C 40.445312 18.027344 40.675781 17.910156 40.90625 17.796875 C 41.03125 17.730469 41.15625 17.664062 41.28125 17.59375 C 41.386719 17.546875 41.492188 17.496094 41.601562 17.449219 C 41.675781 17.488281 41.753906 17.523438 41.832031 17.566406 C 41.832031 17.488281 41.832031 17.410156 41.832031 17.332031 C 42.410156 17.101562 42.410156 17.101562 42.683594 16.992188 C 42.921875 16.898438 43.15625 16.796875 43.390625 16.699219 C 43.945312 16.460938 44.496094 16.253906 45.066406 16.0625 C 45.351562 15.953125 45.632812 15.835938 45.910156 15.714844 C 46.246094 15.589844 46.578125 15.507812 46.925781 15.425781 C 47.164062 15.371094 47.164062 15.371094 47.449219 15.246094 C 47.722656 15.136719 47.722656 15.136719 48.0625 15.085938 C 48.425781 15.039062 48.425781 15.039062 48.765625 14.847656 C 49.125 14.667969 49.40625 14.617188 49.804688 14.558594 C 49.957031 14.523438 50.113281 14.484375 50.265625 14.445312 C 50.539062 14.375 50.804688 14.316406 51.082031 14.269531 C 51.476562 14.203125 51.847656 14.09375 52.230469 13.980469 C 52.5 13.902344 52.691406 13.867188 52.976562 13.875 C 53.316406 13.867188 53.535156 13.761719 53.847656 13.636719 C 54.328125 13.550781 54.804688 13.507812 55.285156 13.46875 C 55.679688 13.4375 56.046875 13.386719 56.425781 13.28125 C 56.828125 13.179688 57.140625 13.164062 57.546875 13.171875 C 57.636719 13.15625 57.726562 13.136719 57.820312 13.117188 C 58.121094 13.058594 58.382812 13.050781 58.6875 13.058594 C 59.195312 13.0625 59.691406 13.039062 60.195312 13 C 61.105469 12.933594 62.007812 12.925781 62.921875 12.925781 Z M 62.921875 12.925781 "/>
<path style=" stroke:none;fill-rule:nonzero;fill:rgb(0%,0%,0%);fill-opacity:1;" d="M 44.71875 27.964844 C 48.074219 27.964844 51.433594 27.964844 54.890625 27.964844 C 54.890625 38.71875 54.890625 49.472656 54.890625 60.550781 C 55.652344 60.132812 56.414062 59.710938 57.199219 59.28125 C 57.605469 59.082031 57.996094 58.898438 58.414062 58.730469 C 58.515625 58.691406 58.617188 58.648438 58.722656 58.605469 C 64.464844 56.386719 70.589844 56.84375 76.15625 59.292969 C 79.390625 60.785156 82.242188 63.261719 84.355469 66.097656 C 84.429688 66.195312 84.5 66.289062 84.574219 66.386719 C 87.851562 70.902344 89.285156 76.679688 88.488281 82.203125 C 88.425781 82.574219 88.359375 82.945312 88.285156 83.316406 C 88.269531 83.394531 88.253906 83.476562 88.234375 83.558594 C 87.390625 87.609375 85.394531 91.265625 82.550781 94.242188 C 82.398438 94.402344 82.246094 94.5625 82.097656 94.726562 C 78.519531 98.464844 73.113281 100.859375 67.945312 100.996094 C 67.835938 101 67.722656 101 67.605469 101.003906 C 65.839844 101.046875 64.136719 100.984375 62.398438 100.648438 C 62.316406 100.632812 62.230469 100.617188 62.144531 100.601562 C 60.078125 100.195312 58.121094 99.460938 56.277344 98.453125 C 56.167969 98.394531 56.167969 98.394531 56.058594 98.335938 C 55.105469 97.820312 54.273438 97.25 53.386719 96.605469 C 53.347656 97.976562 53.3125 99.351562 53.269531 100.765625 C 50.449219 100.765625 47.628906 100.765625 44.71875 100.765625 C 44.71875 76.742188 44.71875 52.714844 44.71875 27.964844 Z M 44.71875 27.964844 "/>
<path style=" stroke:none;fill-rule:nonzero;fill:rgb(89.803922%,74.509805%,40.784314%);fill-opacity:1;" d="M 62.921875 12.925781 C 63.070312 12.925781 63.21875 12.925781 63.371094 12.925781 C 64.269531 12.925781 65.15625 12.964844 66.050781 13.03125 C 66.546875 13.066406 67.039062 13.070312 67.535156 13.066406 C 67.621094 13.066406 67.707031 13.0625 67.796875 13.0625 C 68 13.0625 68.203125 13.058594 68.410156 13.058594 C 68.410156 13.132812 68.410156 13.210938 68.410156 13.289062 C 68.542969 13.253906 68.542969 13.253906 68.683594 13.21875 C 69.347656 13.148438 69.972656 13.308594 70.605469 13.519531 C 70.769531 13.523438 70.9375 13.519531 71.101562 13.511719 C 71.5625 13.507812 71.902344 13.59375 72.339844 13.75 C 72.644531 13.800781 72.953125 13.832031 73.261719 13.867188 C 73.671875 13.917969 74.015625 14 74.394531 14.15625 C 74.828125 14.328125 75.226562 14.382812 75.691406 14.410156 C 75.917969 14.445312 75.917969 14.445312 76.265625 14.675781 C 76.496094 14.703125 76.726562 14.726562 76.953125 14.75 C 77.296875 14.808594 77.574219 14.980469 77.882812 15.136719 C 78.152344 15.179688 78.421875 15.21875 78.695312 15.253906 C 78.808594 15.328125 78.921875 15.40625 79.039062 15.484375 C 79.148438 15.5 79.257812 15.519531 79.371094 15.535156 C 79.761719 15.605469 79.976562 15.746094 80.3125 15.945312 C 80.417969 15.964844 80.519531 15.980469 80.628906 15.996094 C 81.058594 16.070312 81.398438 16.226562 81.792969 16.410156 C 82.058594 16.535156 82.058594 16.535156 82.414062 16.648438 C 82.773438 16.765625 83.09375 16.933594 83.429688 17.101562 C 83.511719 17.121094 83.59375 17.140625 83.675781 17.160156 C 83.894531 17.21875 83.894531 17.21875 84.109375 17.382812 C 84.523438 17.6875 85.015625 17.796875 85.511719 17.910156 C 85.511719 17.988281 85.511719 18.0625 85.511719 18.140625 C 85.625 18.140625 85.738281 18.140625 85.859375 18.140625 C 85.859375 18.21875 85.859375 18.292969 85.859375 18.375 C 86.046875 18.375 86.238281 18.375 86.4375 18.375 C 86.4375 18.449219 86.4375 18.527344 86.4375 18.605469 C 86.558594 18.636719 86.679688 18.667969 86.804688 18.699219 C 87.296875 18.851562 87.65625 19.050781 88.058594 19.371094 C 88.292969 19.535156 88.46875 19.59375 88.746094 19.644531 C 88.746094 19.71875 88.746094 19.796875 88.746094 19.875 C 88.847656 19.90625 88.945312 19.9375 89.050781 19.96875 C 89.433594 20.105469 89.78125 20.25 90.132812 20.453125 C 90.171875 20.566406 90.210938 20.683594 90.25 20.800781 C 90.582031 20.9375 90.582031 20.9375 90.941406 21.03125 C 91.058594 21.070312 91.171875 21.105469 91.289062 21.144531 C 91.289062 21.222656 91.289062 21.300781 91.289062 21.378906 C 91.441406 21.414062 91.59375 21.453125 91.75 21.492188 C 91.75 21.570312 91.75 21.644531 91.75 21.726562 C 92.039062 21.78125 92.039062 21.78125 92.328125 21.839844 C 92.328125 21.917969 92.328125 21.992188 92.328125 22.070312 C 92.394531 22.105469 92.460938 22.136719 92.53125 22.171875 C 92.773438 22.292969 93.011719 22.414062 93.253906 22.535156 C 93.253906 22.609375 93.253906 22.6875 93.253906 22.765625 C 93.367188 22.765625 93.480469 22.765625 93.601562 22.765625 C 93.601562 22.839844 93.601562 22.917969 93.601562 22.996094 C 93.6875 23.027344 93.769531 23.058594 93.859375 23.089844 C 94.164062 23.222656 94.390625 23.351562 94.640625 23.574219 C 94.640625 23.648438 94.640625 23.726562 94.640625 23.804688 C 94.753906 23.832031 94.863281 23.863281 94.980469 23.890625 C 95.097656 23.9375 95.214844 23.984375 95.332031 24.035156 C 95.433594 24.28125 95.433594 24.28125 95.449219 24.496094 C 95.601562 24.535156 95.753906 24.574219 95.910156 24.613281 C 95.910156 24.691406 95.910156 24.765625 95.910156 24.84375 C 96.023438 24.867188 96.023438 24.867188 96.136719 24.886719 C 96.214844 24.910156 96.292969 24.933594 96.375 24.960938 C 96.410156 25.035156 96.449219 25.113281 96.488281 25.191406 C 96.585938 25.246094 96.679688 25.300781 96.777344 25.355469 C 97.066406 25.539062 97.066406 25.539062 97.183594 25.882812 C 97.292969 25.90625 97.292969 25.90625 97.40625 25.929688 C 97.484375 25.953125 97.5625 25.976562 97.644531 26 C 97.722656 26.191406 97.796875 26.386719 97.875 26.578125 C 98.109375 26.679688 98.109375 26.679688 98.335938 26.691406 C 98.335938 26.769531 98.335938 26.847656 98.335938 26.925781 C 98.453125 26.960938 98.566406 27 98.683594 27.039062 C 98.914062 27.269531 98.914062 27.269531 99.023438 27.507812 C 99.136719 27.773438 99.136719 27.773438 99.492188 27.847656 C 99.746094 28.074219 99.746094 28.074219 99.957031 28.3125 C 99.957031 28.386719 99.957031 28.464844 99.957031 28.542969 C 100.070312 28.582031 100.183594 28.617188 100.300781 28.65625 C 100.46875 28.808594 100.46875 28.808594 100.648438 29.003906 C 100.761719 29.113281 100.761719 29.113281 100.871094 29.222656 C 101.125 29.480469 101.347656 29.761719 101.574219 30.042969 C 101.824219 30.304688 102.082031 30.550781 102.347656 30.796875 C 102.609375 31.082031 102.652344 31.1875 102.730469 31.546875 C 102.84375 31.585938 102.957031 31.621094 103.074219 31.664062 C 103.113281 31.816406 103.152344 31.96875 103.191406 32.125 C 103.304688 32.164062 103.417969 32.199219 103.539062 32.238281 C 103.734375 32.398438 103.734375 32.398438 103.882812 32.585938 C 103.882812 32.699219 103.882812 32.816406 103.882812 32.933594 C 104 32.972656 104.113281 33.007812 104.230469 33.046875 C 104.460938 33.394531 104.460938 33.394531 104.460938 33.742188 C 104.578125 33.78125 104.691406 33.816406 104.808594 33.859375 C 104.808594 33.972656 104.808594 34.085938 104.808594 34.203125 C 104.960938 34.28125 105.113281 34.355469 105.269531 34.4375 C 105.269531 34.511719 105.269531 34.585938 105.269531 34.667969 C 105.339844 34.734375 105.410156 34.804688 105.480469 34.875 C 105.746094 35.140625 105.894531 35.382812 106.078125 35.707031 C 106.261719 35.976562 106.449219 36.246094 106.632812 36.515625 C 106.773438 36.746094 106.773438 36.746094 106.773438 36.976562 C 106.847656 37.015625 106.925781 37.054688 107.003906 37.09375 C 107.140625 37.285156 107.140625 37.285156 107.285156 37.527344 C 107.335938 37.609375 107.386719 37.691406 107.4375 37.777344 C 107.484375 37.855469 107.535156 37.9375 107.582031 38.019531 C 107.6875 38.183594 107.6875 38.183594 107.792969 38.351562 C 107.929688 38.59375 107.929688 38.59375 107.929688 38.828125 C 108.003906 38.863281 108.082031 38.902344 108.160156 38.941406 C 108.28125 39.171875 108.394531 39.402344 108.507812 39.636719 C 108.585938 39.773438 108.667969 39.910156 108.753906 40.046875 C 108.941406 40.398438 109.015625 40.636719 109.085938 41.023438 C 109.160156 41.0625 109.238281 41.097656 109.316406 41.136719 C 109.5625 41.507812 109.734375 41.878906 109.894531 42.292969 C 109.929688 42.371094 109.96875 42.445312 110.007812 42.523438 C 110.125 42.753906 110.125 42.753906 110.238281 43.050781 C 110.355469 43.355469 110.355469 43.355469 110.585938 43.679688 C 110.667969 43.871094 110.742188 44.0625 110.816406 44.257812 C 110.875 44.390625 110.933594 44.523438 110.992188 44.664062 C 111.046875 44.796875 111.105469 44.929688 111.164062 45.066406 C 111.203125 45.15625 111.242188 45.242188 111.28125 45.332031 C 111.386719 45.621094 111.472656 45.90625 111.554688 46.199219 C 111.691406 46.671875 111.871094 47.085938 112.097656 47.515625 C 112.355469 48.023438 112.476562 48.570312 112.609375 49.117188 C 112.710938 49.511719 112.84375 49.890625 112.980469 50.269531 C 113.175781 50.832031 113.316406 51.382812 113.414062 51.96875 C 113.464844 52.234375 113.464844 52.234375 113.59375 52.464844 C 113.71875 52.714844 113.742188 52.894531 113.757812 53.167969 C 113.792969 53.570312 113.871094 53.921875 113.996094 54.304688 C 114.15625 54.800781 114.21875 55.265625 114.253906 55.785156 C 114.277344 56.066406 114.277344 56.066406 114.40625 56.40625 C 114.519531 56.753906 114.519531 57.042969 114.507812 57.40625 C 114.519531 57.792969 114.605469 58.152344 114.6875 58.527344 C 114.757812 58.878906 114.800781 59.226562 114.832031 59.582031 C 114.859375 59.8125 114.886719 60.046875 114.921875 60.277344 C 114.980469 60.757812 114.996094 61.234375 114.992188 61.71875 C 114.992188 61.808594 114.992188 61.898438 114.992188 61.988281 C 114.992188 62.277344 114.992188 62.566406 114.992188 62.859375 C 114.992188 63.058594 114.992188 63.261719 114.992188 63.464844 C 114.992188 63.886719 114.992188 64.308594 114.992188 64.734375 C 114.992188 65.277344 114.992188 65.816406 114.992188 66.359375 C 114.992188 66.777344 114.992188 67.195312 114.992188 67.613281 C 114.992188 67.8125 114.992188 68.011719 114.992188 68.210938 C 114.992188 68.492188 114.992188 68.769531 114.992188 69.046875 C 114.992188 69.132812 114.992188 69.214844 114.992188 69.300781 C 114.992188 69.652344 114.972656 69.921875 114.863281 70.257812 C 114.84375 70.417969 114.824219 70.574219 114.8125 70.734375 C 114.773438 71.109375 114.714844 71.460938 114.625 71.824219 C 114.527344 72.230469 114.515625 72.59375 114.53125 73.011719 C 114.503906 73.433594 114.363281 73.828125 114.246094 74.234375 C 114.152344 74.550781 114.152344 74.550781 114.167969 74.960938 C 114.167969 75.382812 114.066406 75.636719 113.90625 76.023438 C 113.816406 76.285156 113.785156 76.519531 113.765625 76.792969 C 113.722656 77.289062 113.558594 77.660156 113.359375 78.117188 C 113.335938 78.269531 113.316406 78.429688 113.300781 78.585938 C 113.242188 79.050781 113.109375 79.320312 112.898438 79.734375 C 112.855469 80.003906 112.816406 80.273438 112.78125 80.542969 C 112.707031 80.65625 112.628906 80.769531 112.550781 80.890625 C 112.503906 81.15625 112.464844 81.425781 112.433594 81.699219 C 112.359375 81.699219 112.28125 81.699219 112.203125 81.699219 C 112.214844 81.792969 112.222656 81.886719 112.234375 81.988281 C 112.199219 82.445312 112.066406 82.703125 111.851562 83.097656 C 111.71875 83.359375 111.675781 83.605469 111.625 83.894531 C 111.550781 84.046875 111.472656 84.203125 111.394531 84.355469 C 111.316406 84.585938 111.238281 84.816406 111.164062 85.050781 C 111.089844 85.050781 111.011719 85.050781 110.933594 85.050781 C 110.925781 85.160156 110.917969 85.269531 110.910156 85.382812 C 110.824219 85.988281 110.523438 86.480469 110.238281 87.011719 C 110.097656 87.292969 109.957031 87.574219 109.8125 87.859375 C 109.746094 87.992188 109.679688 88.125 109.609375 88.261719 C 109.457031 88.574219 109.328125 88.886719 109.199219 89.207031 C 108.898438 89.765625 108.898438 89.765625 108.621094 89.902344 C 108.539062 90.167969 108.460938 90.4375 108.390625 90.710938 C 108.316406 90.710938 108.238281 90.710938 108.160156 90.710938 C 108.160156 90.863281 108.160156 91.015625 108.160156 91.171875 C 108.082031 91.171875 108.007812 91.171875 107.929688 91.171875 C 107.902344 91.300781 107.871094 91.429688 107.84375 91.5625 C 107.699219 91.980469 107.699219 91.980469 107.460938 92.121094 C 107.386719 92.152344 107.3125 92.179688 107.234375 92.214844 C 107.164062 92.421875 107.164062 92.421875 107.121094 92.675781 C 106.941406 93.097656 106.738281 93.421875 106.433594 93.757812 C 106.0625 94.171875 105.847656 94.597656 105.617188 95.101562 C 105.542969 95.101562 105.464844 95.101562 105.386719 95.101562 C 105.386719 95.214844 105.386719 95.332031 105.386719 95.449219 C 105.308594 95.449219 105.234375 95.449219 105.15625 95.449219 C 105.117188 95.5625 105.078125 95.675781 105.039062 95.796875 C 104.964844 95.796875 104.886719 95.796875 104.808594 95.796875 C 104.796875 95.859375 104.785156 95.925781 104.773438 95.992188 C 104.644531 96.421875 104.433594 96.75 104.117188 97.066406 C 103.9375 97.277344 103.761719 97.492188 103.589844 97.707031 C 103.535156 97.761719 103.480469 97.816406 103.421875 97.875 C 103.347656 97.875 103.269531 97.875 103.191406 97.875 C 103.183594 97.9375 103.175781 98 103.167969 98.0625 C 102.992188 98.585938 102.574219 98.957031 102.1875 99.335938 C 101.949219 99.578125 101.816406 99.761719 101.6875 100.070312 C 101.613281 100.070312 101.535156 100.070312 101.457031 100.070312 C 101.417969 100.183594 101.382812 100.300781 101.34375 100.417969 C 101.25 100.453125 101.15625 100.488281 101.0625 100.527344 C 100.699219 100.675781 100.695312 100.769531 100.53125 101.109375 C 100.421875 101.257812 100.308594 101.402344 100.1875 101.542969 C 100.125 101.617188 100.066406 101.6875 100.007812 101.757812 C 99.839844 101.917969 99.839844 101.917969 99.609375 101.917969 C 99.570312 102.035156 99.53125 102.148438 99.492188 102.265625 C 98.976562 102.730469 98.976562 102.730469 98.683594 102.730469 C 98.644531 102.84375 98.609375 102.957031 98.570312 103.074219 C 98.492188 103.074219 98.417969 103.074219 98.335938 103.074219 C 98.3125 103.160156 98.289062 103.246094 98.265625 103.335938 C 98.058594 103.746094 97.796875 103.875 97.414062 104.117188 C 97.335938 104.230469 97.261719 104.34375 97.183594 104.460938 C 97.066406 104.460938 96.953125 104.460938 96.835938 104.460938 C 96.757812 104.613281 96.683594 104.765625 96.605469 104.925781 C 96.488281 104.925781 96.375 104.925781 96.257812 104.925781 C 96.230469 104.992188 96.207031 105.0625 96.179688 105.132812 C 95.988281 105.453125 95.769531 105.550781 95.449219 105.734375 C 95.371094 105.847656 95.296875 105.960938 95.21875 106.078125 C 95.105469 106.117188 94.988281 106.15625 94.871094 106.195312 C 94.792969 106.273438 94.71875 106.347656 94.640625 106.425781 C 94.4375 106.578125 94.230469 106.71875 94.023438 106.863281 C 93.816406 107.007812 93.816406 107.007812 93.601562 107.234375 C 93.4375 107.347656 93.273438 107.460938 93.109375 107.566406 C 92.96875 107.660156 92.96875 107.660156 92.828125 107.753906 C 92.738281 107.8125 92.652344 107.871094 92.558594 107.929688 C 92.441406 108.011719 92.320312 108.089844 92.199219 108.175781 C 91.949219 108.339844 91.699219 108.484375 91.441406 108.628906 C 91.074219 108.820312 91.074219 108.820312 90.898438 109.019531 C 90.652344 109.253906 90.390625 109.394531 90.089844 109.554688 C 89.980469 109.613281 89.875 109.671875 89.761719 109.730469 C 89.441406 109.894531 89.441406 109.894531 89.117188 110.015625 C 88.84375 110.101562 88.84375 110.101562 88.746094 110.355469 C 88.515625 110.433594 88.285156 110.507812 88.054688 110.585938 C 88.015625 110.664062 87.976562 110.738281 87.9375 110.816406 C 87.707031 110.941406 87.707031 110.941406 87.425781 111.0625 C 87.332031 111.105469 87.238281 111.144531 87.144531 111.1875 C 86.898438 111.28125 86.898438 111.28125 86.667969 111.28125 C 86.667969 111.355469 86.667969 111.433594 86.667969 111.511719 C 86.550781 111.558594 86.4375 111.605469 86.320312 111.65625 C 86.007812 111.789062 85.699219 111.933594 85.394531 112.089844 C 84.980469 112.300781 84.554688 112.484375 84.125 112.667969 C 84.046875 112.710938 83.96875 112.753906 83.886719 112.796875 C 83.660156 112.898438 83.660156 112.898438 83.292969 112.957031 C 83.1875 112.972656 83.078125 112.992188 82.96875 113.011719 C 82.929688 113.089844 82.890625 113.164062 82.851562 113.246094 C 82.625 113.324219 82.394531 113.402344 82.160156 113.476562 C 82.003906 113.550781 81.851562 113.628906 81.699219 113.707031 C 81.226562 113.914062 80.738281 114.054688 80.242188 114.195312 C 79.980469 114.28125 79.75 114.390625 79.503906 114.515625 C 79.308594 114.554688 79.117188 114.59375 78.925781 114.628906 C 78.792969 114.683594 78.792969 114.683594 78.65625 114.738281 C 78.34375 114.863281 78.035156 114.957031 77.710938 115.042969 C 77.605469 115.070312 77.5 115.101562 77.390625 115.128906 C 77.183594 115.183594 76.976562 115.226562 76.765625 115.269531 C 76.484375 115.316406 76.484375 115.316406 76.1875 115.453125 C 76.097656 115.488281 76.011719 115.519531 75.917969 115.554688 C 75.84375 115.519531 75.765625 115.480469 75.6875 115.441406 C 75.6875 115.515625 75.6875 115.59375 75.6875 115.671875 C 75.625 115.675781 75.558594 115.683594 75.488281 115.6875 C 74.914062 115.742188 74.394531 115.851562 73.839844 116.019531 C 73.714844 116.035156 73.59375 116.050781 73.464844 116.066406 C 73.09375 116.125 72.761719 116.207031 72.402344 116.3125 C 71.945312 116.441406 71.570312 116.492188 71.09375 116.46875 C 70.617188 116.488281 70.160156 116.628906 69.699219 116.742188 C 68.949219 116.914062 68.230469 116.949219 67.460938 116.9375 C 67.140625 116.941406 66.832031 116.96875 66.511719 117 C 65.472656 117.082031 64.433594 117.074219 63.390625 117.074219 C 63.046875 117.074219 62.703125 117.074219 62.359375 117.074219 C 61.222656 117.074219 60.085938 117.058594 58.949219 117.007812 C 58.851562 117.003906 58.75 116.996094 58.644531 116.992188 C 57.535156 116.9375 56.480469 116.8125 55.398438 116.550781 C 54.988281 116.476562 54.609375 116.476562 54.195312 116.480469 C 54.105469 116.445312 54.019531 116.410156 53.929688 116.371094 C 53.621094 116.25 53.402344 116.222656 53.074219 116.199219 C 52.546875 116.15625 52.085938 116.03125 51.582031 115.867188 C 51.324219 115.792969 51.089844 115.753906 50.824219 115.730469 C 50.351562 115.667969 50.007812 115.511719 49.574219 115.324219 C 49.441406 115.304688 49.304688 115.285156 49.167969 115.265625 C 48.71875 115.203125 48.371094 115.046875 47.957031 114.863281 C 47.828125 114.839844 47.828125 114.839844 47.699219 114.816406 C 47.183594 114.707031 46.707031 114.496094 46.21875 114.304688 C 45.753906 114.125 45.328125 114.015625 44.835938 113.9375 C 44.257812 113.734375 43.710938 113.453125 43.164062 113.183594 C 42.757812 112.992188 42.390625 112.84375 41.945312 112.78125 C 41.945312 112.707031 41.945312 112.628906 41.945312 112.550781 C 41.3125 112.367188 41.3125 112.367188 40.675781 112.203125 C 40.675781 112.128906 40.675781 112.050781 40.675781 111.972656 C 40.609375 111.960938 40.546875 111.945312 40.480469 111.933594 C 40.183594 111.847656 39.9375 111.730469 39.664062 111.589844 C 39.5625 111.539062 39.460938 111.488281 39.355469 111.433594 C 39.257812 111.382812 39.160156 111.332031 39.058594 111.28125 C 38.894531 111.199219 38.730469 111.117188 38.566406 111.035156 C 38.492188 110.996094 38.417969 110.960938 38.34375 110.921875 C 38.140625 110.820312 37.941406 110.726562 37.738281 110.628906 C 37.441406 110.472656 37.441406 110.472656 37.324219 110.238281 C 37.03125 110.164062 37.03125 110.164062 36.746094 110.125 C 36.746094 110.046875 36.746094 109.972656 36.746094 109.894531 C 36.441406 109.769531 36.136719 109.652344 35.824219 109.546875 C 35.824219 109.46875 35.824219 109.394531 35.824219 109.316406 C 35.726562 109.292969 35.632812 109.269531 35.53125 109.242188 C 35.089844 109.070312 34.785156 108.84375 34.417969 108.546875 C 34.195312 108.371094 34.195312 108.371094 33.859375 108.273438 C 33.859375 108.199219 33.859375 108.125 33.859375 108.042969 C 33.742188 108.042969 33.628906 108.042969 33.511719 108.042969 C 33.511719 107.96875 33.511719 107.890625 33.511719 107.8125 C 33.425781 107.804688 33.339844 107.792969 33.25 107.785156 C 32.871094 107.679688 32.730469 107.523438 32.472656 107.234375 C 32.394531 107.195312 32.316406 107.160156 32.238281 107.121094 C 32.238281 107.042969 32.238281 106.96875 32.238281 106.890625 C 32.117188 106.847656 32.117188 106.847656 31.988281 106.804688 C 31.621094 106.640625 31.367188 106.4375 31.0625 106.171875 C 30.648438 105.824219 30.230469 105.5 29.777344 105.199219 C 29.339844 104.902344 29.027344 104.59375 28.699219 104.179688 C 28.460938 103.90625 28.152344 103.738281 27.847656 103.539062 C 27.710938 103.371094 27.574219 103.203125 27.445312 103.035156 C 27.15625 102.71875 26.808594 102.480469 26.460938 102.234375 C 26.21875 102.027344 26.132812 101.859375 26 101.574219 C 25.925781 101.539062 25.851562 101.5 25.777344 101.464844 C 25.539062 101.34375 25.539062 101.34375 25.378906 101.074219 C 25.144531 100.6875 24.847656 100.46875 24.496094 100.1875 C 24.152344 99.78125 24.152344 99.78125 24.152344 99.492188 C 24.035156 99.457031 23.921875 99.417969 23.804688 99.378906 C 23.445312 99.054688 23.199219 98.773438 22.996094 98.335938 C 22.902344 98.246094 22.902344 98.246094 22.808594 98.148438 C 22.730469 98.070312 22.730469 98.070312 22.648438 97.992188 C 22.648438 97.914062 22.648438 97.839844 22.648438 97.761719 C 22.535156 97.722656 22.421875 97.683594 22.300781 97.644531 C 22.144531 97.417969 21.988281 97.1875 21.839844 96.953125 C 21.765625 96.875 21.6875 96.796875 21.609375 96.71875 C 21.53125 96.644531 21.457031 96.566406 21.378906 96.488281 C 21.378906 96.375 21.378906 96.261719 21.378906 96.140625 C 21.300781 96.140625 21.226562 96.140625 21.144531 96.140625 C 21.144531 96.027344 21.144531 95.914062 21.144531 95.796875 C 21.070312 95.796875 20.996094 95.796875 20.914062 95.796875 C 20.914062 95.679688 20.914062 95.566406 20.914062 95.449219 C 20.839844 95.449219 20.761719 95.449219 20.683594 95.449219 C 20.519531 95.214844 20.519531 95.214844 20.324219 94.894531 C 19.960938 94.304688 19.570312 93.753906 19.148438 93.207031 C 18.9375 92.882812 18.828125 92.582031 18.71875 92.214844 C 18.644531 92.214844 18.566406 92.214844 18.488281 92.214844 C 18.488281 92.0625 18.488281 91.90625 18.488281 91.75 C 18.375 91.714844 18.261719 91.675781 18.140625 91.636719 C 17.796875 91.03125 17.796875 91.03125 17.796875 90.710938 C 17.71875 90.671875 17.644531 90.636719 17.566406 90.597656 C 17.464844 90.421875 17.375 90.242188 17.289062 90.0625 C 17.117188 89.703125 16.941406 89.355469 16.734375 89.015625 C 16.570312 88.714844 16.476562 88.503906 16.394531 88.183594 C 16.359375 88.0625 16.328125 87.945312 16.292969 87.820312 C 16.21875 87.785156 16.140625 87.746094 16.0625 87.707031 C 15.933594 87.433594 15.839844 87.152344 15.746094 86.863281 C 15.71875 86.769531 15.6875 86.675781 15.65625 86.582031 C 15.628906 86.488281 15.601562 86.398438 15.574219 86.308594 C 15.503906 86.066406 15.503906 86.066406 15.253906 85.972656 C 15.167969 85.785156 15.09375 85.589844 15.023438 85.394531 C 14.980469 85.304688 14.941406 85.210938 14.898438 85.113281 C 14.789062 84.816406 14.789062 84.816406 14.734375 84.441406 C 14.703125 84.285156 14.703125 84.285156 14.675781 84.125 C 14.597656 84.085938 14.523438 84.046875 14.445312 84.007812 C 14.359375 83.796875 14.359375 83.796875 14.277344 83.53125 C 14.171875 83.195312 14.058594 82.882812 13.917969 82.558594 C 13.773438 82.214844 13.679688 81.886719 13.597656 81.527344 C 13.414062 80.84375 13.171875 80.171875 12.941406 79.503906 C 12.816406 79.125 12.734375 78.75 12.652344 78.363281 C 12.59375 78.097656 12.59375 78.097656 12.480469 77.769531 C 12.421875 77.539062 12.363281 77.3125 12.304688 77.082031 C 12.277344 76.960938 12.246094 76.84375 12.214844 76.71875 C 12.1875 76.609375 12.160156 76.496094 12.132812 76.382812 C 12.113281 76.300781 12.089844 76.21875 12.066406 76.132812 C 12 75.839844 11.972656 75.546875 11.9375 75.246094 C 11.902344 75 11.851562 74.761719 11.792969 74.519531 C 11.652344 73.921875 11.582031 73.316406 11.5 72.710938 C 11.449219 72.328125 11.449219 72.328125 11.308594 71.925781 C 11.1875 71.4375 11.207031 71 11.214844 70.5 C 11.214844 69.96875 11.152344 69.449219 11.09375 68.921875 C 10.972656 67.722656 10.941406 66.535156 10.949219 65.328125 C 10.949219 65 10.949219 64.671875 10.945312 64.34375 C 10.945312 63.144531 10.996094 61.96875 11.128906 60.777344 C 11.191406 60.222656 11.21875 59.683594 11.210938 59.121094 C 11.199219 58.585938 11.277344 58.175781 11.441406 57.660156 C 11.464844 57.476562 11.480469 57.292969 11.496094 57.105469 C 11.558594 56.386719 11.671875 55.679688 11.910156 54.996094 C 12.003906 54.707031 12.042969 54.480469 12.070312 54.179688 C 12.132812 53.511719 12.304688 52.878906 12.480469 52.230469 C 12.523438 52.070312 12.523438 52.070312 12.566406 51.90625 C 12.625 51.695312 12.683594 51.484375 12.742188 51.273438 C 12.796875 51.0625 12.855469 50.851562 12.910156 50.636719 C 13.074219 50.003906 13.273438 49.402344 13.535156 48.796875 C 13.644531 48.535156 13.644531 48.535156 13.6875 48.253906 C 13.761719 47.902344 13.890625 47.605469 14.03125 47.277344 C 14.199219 46.886719 14.359375 46.507812 14.464844 46.101562 C 14.558594 45.761719 14.558594 45.761719 14.789062 45.414062 C 14.871094 45.183594 14.945312 44.953125 15.023438 44.71875 C 15.292969 44.046875 15.617188 43.402344 15.945312 42.753906 C 16.085938 42.480469 16.226562 42.203125 16.367188 41.925781 C 16.429688 41.792969 16.496094 41.664062 16.566406 41.53125 C 16.699219 41.25 16.820312 40.976562 16.9375 40.691406 C 17.101562 40.328125 17.101562 40.328125 17.332031 40.214844 C 17.332031 40.097656 17.332031 39.984375 17.332031 39.867188 C 17.410156 39.867188 17.484375 39.867188 17.566406 39.867188 C 17.640625 39.601562 17.71875 39.332031 17.796875 39.058594 C 17.871094 39.058594 17.949219 39.058594 18.027344 39.058594 C 18.054688 38.960938 18.082031 38.867188 18.113281 38.769531 C 18.28125 38.304688 18.492188 37.875 18.71875 37.441406 C 18.796875 37.441406 18.871094 37.441406 18.949219 37.441406 C 18.988281 37.289062 19.027344 37.132812 19.066406 36.976562 C 19.144531 36.976562 19.21875 36.976562 19.296875 36.976562 C 19.3125 36.910156 19.332031 36.839844 19.347656 36.769531 C 19.398438 36.566406 19.464844 36.367188 19.527344 36.167969 C 19.605469 36.167969 19.679688 36.167969 19.761719 36.167969 C 19.898438 35.898438 20.011719 35.648438 20.105469 35.359375 C 20.183594 35.359375 20.257812 35.359375 20.335938 35.359375 C 20.367188 35.277344 20.394531 35.199219 20.425781 35.113281 C 20.589844 34.738281 20.785156 34.417969 21.03125 34.089844 C 21.105469 34.089844 21.183594 34.089844 21.261719 34.089844 C 21.316406 33.953125 21.316406 33.953125 21.371094 33.816406 C 21.492188 33.511719 21.492188 33.511719 21.609375 33.28125 C 21.683594 33.28125 21.761719 33.28125 21.839844 33.28125 C 21.878906 33.164062 21.917969 33.050781 21.957031 32.933594 C 22.03125 32.933594 22.109375 32.933594 22.1875 32.933594 C 22.1875 32.820312 22.1875 32.703125 22.1875 32.585938 C 22.320312 32.449219 22.453125 32.3125 22.59375 32.183594 C 22.78125 31.992188 22.9375 31.785156 23.097656 31.570312 C 23.625 30.851562 24.214844 30.210938 24.84375 29.582031 C 24.921875 29.46875 24.996094 29.351562 25.074219 29.234375 C 25.152344 29.234375 25.226562 29.234375 25.304688 29.234375 C 25.34375 29.121094 25.382812 29.007812 25.421875 28.890625 C 25.5 28.890625 25.574219 28.890625 25.652344 28.890625 C 25.691406 28.773438 25.730469 28.660156 25.769531 28.542969 C 25.9375 28.398438 26.105469 28.253906 26.277344 28.117188 C 26.664062 27.796875 27.003906 27.425781 27.351562 27.0625 C 27.617188 26.808594 27.617188 26.808594 27.847656 26.808594 C 27.847656 26.730469 27.847656 26.65625 27.847656 26.578125 C 28.003906 26.421875 28.003906 26.421875 28.21875 26.253906 C 28.644531 25.898438 29.039062 25.519531 29.414062 25.113281 C 29.609375 24.9375 29.8125 24.84375 30.042969 24.730469 C 30.082031 24.652344 30.121094 24.578125 30.160156 24.496094 C 30.273438 24.460938 30.390625 24.421875 30.507812 24.382812 C 30.542969 24.304688 30.582031 24.230469 30.621094 24.152344 C 30.738281 24.113281 30.851562 24.074219 30.96875 24.035156 C 31.125 23.882812 31.277344 23.730469 31.429688 23.574219 C 31.582031 23.457031 31.738281 23.339844 31.894531 23.226562 C 31.96875 23.167969 32.042969 23.113281 32.121094 23.054688 C 32.535156 22.738281 32.945312 22.449219 33.394531 22.1875 C 33.472656 22.109375 33.546875 22.035156 33.625 21.957031 C 33.816406 21.875 34.007812 21.796875 34.203125 21.726562 C 34.203125 21.648438 34.203125 21.570312 34.203125 21.492188 C 34.320312 21.492188 34.433594 21.492188 34.550781 21.492188 C 34.550781 21.417969 34.550781 21.339844 34.550781 21.261719 C 34.703125 21.261719 34.855469 21.261719 35.011719 21.261719 C 35.011719 21.1875 35.011719 21.109375 35.011719 21.03125 C 35.089844 21.03125 35.167969 21.03125 35.246094 21.03125 C 35.28125 20.957031 35.320312 20.878906 35.359375 20.800781 C 35.523438 20.699219 35.695312 20.605469 35.867188 20.519531 C 36.214844 20.335938 36.476562 20.164062 36.746094 19.875 C 36.988281 19.738281 37.230469 19.636719 37.492188 19.535156 C 37.796875 19.417969 37.796875 19.417969 38.089844 19.226562 C 38.363281 19.066406 38.363281 19.066406 38.710938 19.066406 C 38.710938 18.992188 38.710938 18.914062 38.710938 18.835938 C 38.789062 18.808594 38.863281 18.777344 38.941406 18.75 C 39.378906 18.566406 39.792969 18.355469 40.214844 18.140625 C 40.445312 18.027344 40.675781 17.910156 40.90625 17.796875 C 41.03125 17.730469 41.15625 17.664062 41.28125 17.59375 C 41.386719 17.546875 41.492188 17.496094 41.601562 17.449219 C 41.675781 17.488281 41.753906 17.523438 41.832031 17.566406 C 41.832031 17.488281 41.832031 17.410156 41.832031 17.332031 C 42.410156 17.101562 42.410156 17.101562 42.683594 16.992188 C 42.921875 16.898438 43.15625 16.796875 43.390625 16.699219 C 43.945312 16.460938 44.496094 16.253906 45.066406 16.0625 C 45.351562 15.953125 45.632812 15.835938 45.910156 15.714844 C 46.246094 15.589844 46.578125 15.507812 46.925781 15.425781 C 47.164062 15.371094 47.164062 15.371094 47.449219 15.246094 C 47.722656 15.136719 47.722656 15.136719 48.0625 15.085938 C 48.425781 15.039062 48.425781 15.039062 48.765625 14.847656 C 49.125 14.667969 49.40625 14.617188 49.804688 14.558594 C 49.957031 14.523438 50.113281 14.484375 50.265625 14.445312 C 50.539062 14.375 50.804688 14.316406 51.082031 14.269531 C 51.476562 14.203125 51.847656 14.09375 52.230469 13.980469 C 52.5 13.902344 52.691406 13.867188 52.976562 13.875 C 53.316406 13.867188 53.535156 13.761719 53.847656 13.636719 C 54.328125 13.550781 54.804688 13.507812 55.285156 13.46875 C 55.679688 13.4375 56.046875 13.386719 56.425781 13.28125 C 56.828125 13.179688 57.140625 13.164062 57.546875 13.171875 C 57.636719 13.15625 57.726562 13.136719 57.820312 13.117188 C 58.121094 13.058594 58.382812 13.050781 58.6875 13.058594 C 59.195312 13.0625 59.691406 13.039062 60.195312 13 C 61.105469 12.933594 62.007812 12.925781 62.921875 12.925781 Z M 50.878906 18.988281 C 50.585938 19.074219 50.289062 19.160156 49.996094 19.242188 C 48.515625 19.65625 47.0625 20.09375 45.644531 20.683594 C 45.570312 20.714844 45.492188 20.746094 45.414062 20.777344 C 40.820312 22.664062 36.625 25.1875 32.804688 28.363281 C 32.605469 28.523438 32.40625 28.6875 32.207031 28.847656 C 31.261719 29.625 30.398438 30.480469 29.53125 31.34375 C 29.472656 31.40625 29.410156 31.464844 29.347656 31.527344 C 28.671875 32.207031 28.007812 32.894531 27.386719 33.625 C 27.285156 33.746094 27.179688 33.863281 27.078125 33.980469 C 24.671875 36.785156 22.472656 39.925781 20.882812 43.265625 C 20.757812 43.527344 20.628906 43.785156 20.496094 44.042969 C 18.980469 46.929688 17.960938 50.050781 17.175781 53.207031 C 17.113281 53.464844 17.042969 53.722656 16.972656 53.980469 C 16.410156 56.082031 16.117188 58.269531 15.945312 60.4375 C 15.9375 60.5625 15.925781 60.691406 15.917969 60.824219 C 15.828125 62.035156 15.808594 63.246094 15.808594 64.460938 C 15.808594 64.789062 15.808594 65.113281 15.804688 65.4375 C 15.800781 66.8125 15.882812 68.160156 16.035156 69.527344 C 16.070312 69.886719 16.101562 70.246094 16.128906 70.605469 C 16.570312 75.890625 18.453125 81.417969 20.914062 86.09375 C 21.042969 86.339844 21.167969 86.59375 21.296875 86.84375 C 22.765625 89.722656 24.609375 92.398438 26.691406 94.871094 C 26.78125 94.980469 26.78125 94.980469 26.875 95.089844 C 27.621094 95.984375 28.398438 96.832031 29.234375 97.644531 C 29.570312 97.976562 29.898438 98.308594 30.230469 98.648438 C 31.09375 99.523438 31.960938 100.351562 32.933594 101.109375 C 33.070312 101.226562 33.207031 101.339844 33.34375 101.453125 C 34.503906 102.421875 35.714844 103.285156 36.976562 104.117188 C 37.113281 104.203125 37.113281 104.203125 37.25 104.292969 C 40.425781 106.378906 43.808594 108.015625 47.378906 109.316406 C 47.460938 109.347656 47.542969 109.378906 47.628906 109.410156 C 49.125 109.960938 50.6875 110.320312 52.230469 110.703125 C 52.328125 110.726562 52.425781 110.75 52.527344 110.777344 C 54.542969 111.265625 56.59375 111.601562 58.660156 111.753906 C 58.796875 111.761719 58.929688 111.773438 59.066406 111.78125 C 60.511719 111.878906 61.957031 111.910156 63.402344 111.910156 C 63.609375 111.910156 63.609375 111.910156 63.816406 111.910156 C 67.570312 111.902344 71.136719 111.429688 74.765625 110.472656 C 74.945312 110.425781 75.128906 110.378906 75.308594 110.335938 C 81.53125 108.753906 87.390625 105.738281 92.378906 101.71875 C 92.550781 101.582031 92.71875 101.445312 92.890625 101.3125 C 93.613281 100.730469 94.292969 100.117188 94.972656 99.484375 C 95.289062 99.1875 95.613281 98.894531 95.941406 98.605469 C 96.703125 97.917969 97.429688 97.199219 98.097656 96.421875 C 98.292969 96.195312 98.484375 95.972656 98.679688 95.75 C 99.492188 94.828125 100.265625 93.890625 100.996094 92.90625 C 101.085938 92.785156 101.175781 92.667969 101.265625 92.542969 C 103.820312 89.070312 105.917969 85.199219 107.375 81.144531 C 107.464844 80.898438 107.554688 80.65625 107.644531 80.414062 C 108.539062 78.035156 109.15625 75.578125 109.632812 73.082031 C 109.664062 72.917969 109.664062 72.917969 109.699219 72.75 C 110.1875 70.050781 110.308594 67.351562 110.296875 64.617188 C 110.296875 64.53125 110.296875 64.449219 110.296875 64.359375 C 110.292969 61.632812 110.214844 58.957031 109.664062 56.277344 C 109.640625 56.179688 109.625 56.082031 109.601562 55.984375 C 107.828125 47.394531 104.054688 39.367188 98.054688 32.90625 C 97.816406 32.648438 97.589844 32.390625 97.363281 32.125 C 96.597656 31.246094 95.753906 30.417969 94.867188 29.660156 C 94.609375 29.4375 94.359375 29.207031 94.105469 28.976562 C 93.390625 28.332031 92.632812 27.738281 91.867188 27.15625 C 91.785156 27.09375 91.699219 27.027344 91.613281 26.964844 C 90.28125 25.949219 88.914062 25.015625 87.476562 24.152344 C 87.382812 24.09375 87.285156 24.039062 87.191406 23.976562 C 83.824219 21.964844 80.234375 20.472656 76.496094 19.296875 C 76.351562 19.25 76.351562 19.25 76.199219 19.203125 C 74.296875 18.59375 72.339844 18.242188 70.375 17.910156 C 70.25 17.890625 70.125 17.871094 70 17.847656 C 67.769531 17.503906 65.519531 17.402344 63.265625 17.40625 C 63.085938 17.40625 63.085938 17.40625 62.902344 17.40625 C 58.835938 17.414062 54.78125 17.820312 50.878906 18.988281 Z M 50.878906 18.988281 "/>
<path style=" stroke:none;fill-rule:nonzero;fill:rgb(95.294118%,87.843138%,48.627451%);fill-opacity:1;" d="M 66.597656 67.347656 C 66.777344 67.34375 66.777344 67.34375 66.964844 67.34375 C 68.183594 67.339844 69.328125 67.515625 70.480469 67.910156 C 70.613281 67.957031 70.613281 67.957031 70.75 68 C 73.777344 69.070312 76.039062 71.320312 77.449219 74.15625 C 78.660156 76.71875 78.960938 79.941406 78 82.621094 C 77.972656 82.695312 77.949219 82.769531 77.921875 82.84375 C 76.886719 85.785156 74.808594 88.300781 71.984375 89.675781 C 69.375 90.882812 66.066406 91.394531 63.265625 90.515625 C 63.132812 90.464844 63 90.414062 62.863281 90.363281 C 62.789062 90.335938 62.714844 90.308594 62.636719 90.28125 C 59.550781 89.128906 57.207031 86.882812 55.808594 83.914062 C 54.546875 81.035156 54.484375 77.664062 55.609375 74.742188 C 57.050781 71.53125 59.394531 69.269531 62.632812 67.945312 C 63.96875 67.457031 65.183594 67.347656 66.597656 67.347656 Z M 66.597656 67.347656 "/>
<path style=" stroke:none;fill-rule:nonzero;fill:rgb(3.921569%,3.137255%,1.568628%);fill-opacity:1;" d="M 61.035156 16.734375 C 61.167969 16.734375 61.296875 16.734375 61.429688 16.734375 C 61.703125 16.734375 61.976562 16.734375 62.246094 16.734375 C 62.652344 16.734375 63.0625 16.730469 63.46875 16.730469 C 65.871094 16.722656 68.246094 16.863281 70.617188 17.253906 C 70.695312 17.265625 70.773438 17.277344 70.851562 17.292969 C 72.949219 17.628906 75 18.058594 77.015625 18.738281 C 77.328125 18.84375 77.640625 18.941406 77.953125 19.039062 C 79.710938 19.601562 81.398438 20.285156 83.085938 21.03125 C 83.175781 21.070312 83.269531 21.113281 83.363281 21.152344 C 88.503906 23.417969 93.1875 26.945312 97.140625 30.910156 C 97.320312 31.09375 97.5 31.273438 97.683594 31.453125 C 98.3125 32.082031 98.921875 32.714844 99.492188 33.394531 C 99.582031 33.5 99.582031 33.5 99.671875 33.605469 C 105.804688 40.925781 109.710938 49.859375 110.773438 59.351562 C 110.804688 59.644531 110.839844 59.933594 110.878906 60.226562 C 111.050781 61.660156 111.089844 63.078125 111.085938 64.523438 C 111.085938 64.699219 111.085938 64.699219 111.085938 64.875 C 111.078125 66.804688 110.980469 68.691406 110.703125 70.605469 C 110.679688 70.753906 110.660156 70.90625 110.636719 71.0625 C 110.285156 73.566406 109.851562 76.039062 109.050781 78.441406 C 108.945312 78.761719 108.851562 79.082031 108.753906 79.402344 C 107.328125 84.039062 105.078125 88.390625 102.265625 92.328125 C 102.199219 92.421875 102.132812 92.515625 102.066406 92.613281 C 101.1875 93.839844 100.273438 95.019531 99.261719 96.140625 C 99.171875 96.242188 99.085938 96.339844 98.992188 96.441406 C 98.226562 97.285156 97.4375 98.101562 96.632812 98.910156 C 96.429688 99.109375 96.230469 99.3125 96.03125 99.515625 C 95.253906 100.292969 94.464844 101.011719 93.601562 101.6875 C 93.453125 101.808594 93.308594 101.925781 93.164062 102.046875 C 90.355469 104.332031 87.273438 106.230469 84.019531 107.8125 C 83.769531 107.933594 83.519531 108.058594 83.273438 108.179688 C 81.941406 108.835938 80.582031 109.375 79.1875 109.871094 C 78.910156 109.972656 78.632812 110.074219 78.355469 110.175781 C 77.203125 110.597656 76.042969 110.9375 74.851562 111.230469 C 74.761719 111.25 74.671875 111.273438 74.582031 111.296875 C 73.359375 111.597656 72.140625 111.867188 70.902344 112.082031 C 70.777344 112.101562 70.652344 112.125 70.527344 112.148438 C 70.128906 112.210938 69.730469 112.269531 69.332031 112.320312 C 69.253906 112.332031 69.171875 112.339844 69.089844 112.351562 C 67.253906 112.582031 65.414062 112.589844 63.566406 112.585938 C 63.226562 112.585938 62.886719 112.585938 62.546875 112.589844 C 60.46875 112.601562 58.449219 112.523438 56.390625 112.203125 C 56.238281 112.183594 56.082031 112.160156 55.925781 112.140625 C 51.089844 111.476562 46.171875 110.003906 41.847656 107.710938 C 41.5625 107.5625 41.273438 107.417969 40.984375 107.273438 C 38.042969 105.785156 35.320312 103.960938 32.789062 101.855469 C 32.613281 101.710938 32.433594 101.566406 32.253906 101.425781 C 30.914062 100.355469 29.691406 99.148438 28.476562 97.941406 C 28.367188 97.832031 28.367188 97.832031 28.253906 97.71875 C 25.597656 95.054688 23.367188 91.875 21.492188 88.632812 C 21.441406 88.542969 21.390625 88.457031 21.339844 88.367188 C 18.324219 83.160156 16.414062 77.425781 15.542969 71.476562 C 15.507812 71.21875 15.46875 70.960938 15.425781 70.703125 C 14.742188 66.34375 14.90625 61.664062 15.601562 57.316406 C 15.628906 57.121094 15.628906 57.121094 15.660156 56.921875 C 16.699219 50.164062 19.300781 43.507812 23.226562 37.902344 C 23.273438 37.835938 23.320312 37.765625 23.371094 37.695312 C 24.652344 35.855469 26.027344 34.089844 27.554688 32.445312 C 27.789062 32.1875 28.019531 31.929688 28.246094 31.664062 C 29.007812 30.785156 29.84375 29.964844 30.726562 29.214844 C 30.972656 29.003906 31.207031 28.78125 31.445312 28.5625 C 34.601562 25.613281 38.402344 23.21875 42.292969 21.378906 C 42.386719 21.332031 42.480469 21.289062 42.574219 21.242188 C 46.683594 19.296875 51.070312 17.847656 55.582031 17.21875 C 55.796875 17.1875 56.007812 17.15625 56.21875 17.125 C 56.445312 17.09375 56.667969 17.0625 56.890625 17.03125 C 57.039062 17.007812 57.039062 17.007812 57.195312 16.988281 C 58.472656 16.8125 59.746094 16.738281 61.035156 16.734375 Z M 50.878906 18.988281 C 50.585938 19.074219 50.289062 19.160156 49.996094 19.242188 C 48.515625 19.65625 47.0625 20.09375 45.644531 20.683594 C 45.570312 20.714844 45.492188 20.746094 45.414062 20.777344 C 40.820312 22.664062 36.625 25.1875 32.804688 28.363281 C 32.605469 28.523438 32.40625 28.6875 32.207031 28.847656 C 31.261719 29.625 30.398438 30.480469 29.53125 31.34375 C 29.472656 31.40625 29.410156 31.464844 29.347656 31.527344 C 28.671875 32.207031 28.007812 32.894531 27.386719 33.625 C 27.285156 33.746094 27.179688 33.863281 27.078125 33.980469 C 24.671875 36.785156 22.472656 39.925781 20.882812 43.265625 C 20.757812 43.527344 20.628906 43.785156 20.496094 44.042969 C 18.980469 46.929688 17.960938 50.050781 17.175781 53.207031 C 17.113281 53.464844 17.042969 53.722656 16.972656 53.980469 C 16.410156 56.082031 16.117188 58.269531 15.945312 60.4375 C 15.9375 60.5625 15.925781 60.691406 15.917969 60.824219 C 15.828125 62.035156 15.808594 63.246094 15.808594 64.460938 C 15.808594 64.789062 15.808594 65.113281 15.804688 65.4375 C 15.800781 66.8125 15.882812 68.160156 16.035156 69.527344 C 16.070312 69.886719 16.101562 70.246094 16.128906 70.605469 C 16.570312 75.890625 18.453125 81.417969 20.914062 86.09375 C 21.042969 86.339844 21.167969 86.59375 21.296875 86.84375 C 22.765625 89.722656 24.609375 92.398438 26.691406 94.871094 C 26.78125 94.980469 26.78125 94.980469 26.875 95.089844 C 27.621094 95.984375 28.398438 96.832031 29.234375 97.644531 C 29.570312 97.976562 29.898438 98.308594 30.230469 98.648438 C 31.09375 99.523438 31.960938 100.351562 32.933594 101.109375 C 33.070312 101.226562 33.207031 101.339844 33.34375 101.453125 C 34.503906 102.421875 35.714844 103.285156 36.976562 104.117188 C 37.113281 104.203125 37.113281 104.203125 37.25 104.292969 C 40.425781 106.378906 43.808594 108.015625 47.378906 109.316406 C 47.460938 109.347656 47.542969 109.378906 47.628906 109.410156 C 49.125 109.960938 50.6875 110.320312 52.230469 110.703125 C 52.328125 110.726562 52.425781 110.75 52.527344 110.777344 C 54.542969 111.265625 56.59375 111.601562 58.660156 111.753906 C 58.796875 111.761719 58.929688 111.773438 59.066406 111.78125 C 60.511719 111.878906 61.957031 111.910156 63.402344 111.910156 C 63.609375 111.910156 63.609375 111.910156 63.816406 111.910156 C 67.570312 111.902344 71.136719 111.429688 74.765625 110.472656 C 74.945312 110.425781 75.128906 110.378906 75.308594 110.335938 C 81.53125 108.753906 87.390625 105.738281 92.378906 101.71875 C 92.550781 101.582031 92.71875 101.445312 92.890625 101.3125 C 93.613281 100.730469 94.292969 100.117188 94.972656 99.484375 C 95.289062 99.1875 95.613281 98.894531 95.941406 98.605469 C 96.703125 97.917969 97.429688 97.199219 98.097656 96.421875 C 98.292969 96.195312 98.484375 95.972656 98.679688 95.75 C 99.492188 94.828125 100.265625 93.890625 100.996094 92.90625 C 101.085938 92.785156 101.175781 92.667969 101.265625 92.542969 C 103.820312 89.070312 105.917969 85.199219 107.375 81.144531 C 107.464844 80.898438 107.554688 80.65625 107.644531 80.414062 C 108.539062 78.035156 109.15625 75.578125 109.632812 73.082031 C 109.664062 72.917969 109.664062 72.917969 109.699219 72.75 C 110.1875 70.050781 110.308594 67.351562 110.296875 64.617188 C 110.296875 64.53125 110.296875 64.449219 110.296875 64.359375 C 110.292969 61.632812 110.214844 58.957031 109.664062 56.277344 C 109.640625 56.179688 109.625 56.082031 109.601562 55.984375 C 107.828125 47.394531 104.054688 39.367188 98.054688 32.90625 C 97.816406 32.648438 97.589844 32.390625 97.363281 32.125 C 96.597656 31.246094 95.753906 30.417969 94.867188 29.660156 C 94.609375 29.4375 94.359375 29.207031 94.105469 28.976562 C 93.390625 28.332031 92.632812 27.738281 91.867188 27.15625 C 91.785156 27.09375 91.699219 27.027344 91.613281 26.964844 C 90.28125 25.949219 88.914062 25.015625 87.476562 24.152344 C 87.382812 24.09375 87.285156 24.039062 87.191406 23.976562 C 83.824219 21.964844 80.234375 20.472656 76.496094 19.296875 C 76.351562 19.25 76.351562 19.25 76.199219 19.203125 C 74.296875 18.59375 72.339844 18.242188 70.375 17.910156 C 70.25 17.890625 70.125 17.871094 70 17.847656 C 67.769531 17.503906 65.519531 17.402344 63.265625 17.40625 C 63.085938 17.40625 63.085938 17.40625 62.902344 17.40625 C 58.835938 17.414062 54.78125 17.820312 50.878906 18.988281 Z M 50.878906 18.988281 "/>
<path style=" stroke:none;fill-rule:nonzero;fill:rgb(5.490196%,43.529412%,14.117648%);fill-opacity:1;" d="M 71.761719 30.621094 C 72.75 30.621094 73.742188 30.621094 74.765625 30.621094 C 74.765625 30.699219 74.765625 30.773438 74.765625 30.851562 C 75.070312 30.890625 75.375 30.929688 75.6875 30.96875 C 75.6875 31.046875 75.6875 31.121094 75.6875 31.199219 C 75.789062 31.226562 75.890625 31.253906 75.992188 31.277344 C 76.433594 31.453125 76.734375 31.695312 77.074219 32.015625 C 77.136719 32.074219 77.195312 32.128906 77.257812 32.1875 C 78.054688 32.957031 78.496094 33.675781 78.746094 34.761719 C 78.785156 35.007812 78.785156 35.007812 78.925781 35.128906 C 79.109375 36.894531 78.773438 38.304688 77.746094 39.761719 C 76.910156 40.753906 75.769531 41.636719 74.453125 41.796875 C 71.929688 41.984375 71.929688 41.984375 70.835938 41.367188 C 70.679688 41.292969 70.523438 41.21875 70.367188 41.144531 C 69.171875 40.539062 68.203125 39.269531 67.765625 38 C 67.363281 36.742188 67.265625 35.351562 67.875 34.152344 C 67.949219 34.019531 68.023438 33.882812 68.101562 33.75 C 68.308594 33.417969 68.308594 33.417969 68.347656 33.089844 C 68.433594 32.714844 68.621094 32.585938 68.914062 32.339844 C 69.289062 32.03125 69.289062 32.03125 69.636719 31.695312 C 69.859375 31.484375 70.074219 31.472656 70.375 31.429688 C 70.375 31.355469 70.375 31.277344 70.375 31.199219 C 70.539062 31.140625 70.707031 31.082031 70.871094 31.027344 C 71.011719 30.976562 71.011719 30.976562 71.152344 30.929688 C 71.414062 30.851562 71.414062 30.851562 71.761719 30.851562 C 71.761719 30.777344 71.761719 30.699219 71.761719 30.621094 Z M 71.761719 30.621094 "/>
<path style=" stroke:none;fill-rule:nonzero;fill:rgb(66.666669%,75.686276%,37.64706%);fill-opacity:1;" d="M 71.992188 41.714844 C 72.832031 41.714844 73.667969 41.714844 74.535156 41.714844 C 74.304688 41.832031 74.304688 41.832031 74.070312 41.945312 C 73.980469 42.007812 73.890625 42.070312 73.796875 42.132812 C 73.417969 42.332031 73.222656 42.351562 72.800781 42.292969 C 72.511719 42.160156 72.261719 42.003906 71.992188 41.832031 C 71.992188 41.792969 71.992188 41.753906 71.992188 41.714844 Z M 71.992188 41.714844 "/>
<path style=" stroke:none;fill-rule:nonzero;fill:rgb(44.705883%,62.352943%,32.941177%);fill-opacity:1;" d="M 69.796875 31.546875 C 69.871094 31.585938 69.949219 31.621094 70.027344 31.664062 C 69.910156 31.699219 69.796875 31.738281 69.679688 31.777344 C 69.648438 31.84375 69.617188 31.910156 69.585938 31.980469 C 69.390625 32.355469 69.082031 32.554688 68.753906 32.816406 C 68.546875 33.066406 68.546875 33.066406 68.410156 33.28125 C 68.371094 33.164062 68.332031 33.050781 68.292969 32.933594 C 68.371094 32.863281 68.453125 32.792969 68.535156 32.71875 C 68.636719 32.625 68.742188 32.53125 68.847656 32.433594 C 68.953125 32.34375 69.054688 32.25 69.164062 32.15625 C 69.378906 31.957031 69.589844 31.757812 69.796875 31.546875 Z M 69.796875 31.546875 "/>
<path style=" stroke:none;fill-rule:nonzero;fill:rgb(60.000002%,69.803923%,34.117648%);fill-opacity:1;" d="M 73.242188 30.261719 C 73.324219 30.304688 73.40625 30.347656 73.492188 30.390625 C 73.722656 30.4375 73.953125 30.476562 74.1875 30.507812 C 74.1875 30.542969 74.1875 30.582031 74.1875 30.621094 C 73.578125 30.621094 72.964844 30.621094 72.339844 30.621094 C 72.875 30.085938 72.875 30.085938 73.242188 30.261719 Z M 73.242188 30.261719 "/>
<path style=" stroke:none;fill-rule:nonzero;fill:rgb(100%,0%,0%);fill-opacity:1;" d="M 70.71875 13.40625 C 71.066406 13.519531 71.066406 13.519531 71.066406 13.519531 Z M 70.71875 13.40625 "/>
<path style=" stroke:none;fill-rule:nonzero;fill:rgb(100%,0%,0%);fill-opacity:1;" d="M 54.890625 13.40625 C 55.234375 13.519531 55.234375 13.519531 55.234375 13.519531 Z M 54.890625 13.40625 "/>
<path style=" stroke:none;fill-rule:nonzero;fill:rgb(100%,0%,0%);fill-opacity:1;" d="M 70.949219 116.480469 C 71.183594 116.59375 71.183594 116.59375 71.183594 116.59375 Z M 70.949219 116.480469 "/>
<path style=" stroke:none;fill-rule:nonzero;fill:rgb(100%,0%,0%);fill-opacity:1;" d="M 54.773438 116.480469 C 55.003906 116.59375 55.003906 116.59375 55.003906 116.59375 Z M 54.773438 116.480469 "/>
<path style=" stroke:none;fill-rule:nonzero;fill:rgb(100%,0%,0%);fill-opacity:1;" d="M 47.839844 15.023438 C 48.070312 15.136719 48.070312 15.136719 48.070312 15.136719 Z M 47.839844 15.023438 "/>
<path style=" stroke:none;fill-rule:nonzero;fill:rgb(100%,100%,0%);fill-opacity:1;" d="M 74.878906 14.214844 C 75.109375 14.328125 75.109375 14.328125 75.109375 14.328125 Z M 74.878906 14.214844 "/>
<path style=" stroke:none;fill-rule:nonzero;fill:rgb(100%,0%,0%);fill-opacity:1;" d="M 50.84375 14.214844 C 51.074219 14.328125 51.074219 14.328125 51.074219 14.328125 Z M 50.84375 14.214844 "/>
<path style=" stroke:none;fill-rule:nonzero;fill:rgb(100%,49.803922%,0%);fill-opacity:1;" d="M 52.925781 13.75 C 53.15625 13.867188 53.15625 13.867188 53.15625 13.867188 Z M 52.925781 13.75 "/>
</g>
</svg>
