<?xml version="1.0" encoding="UTF-8"?>
<svg xmlns="http://www.w3.org/2000/svg" xmlns:xlink="http://www.w3.org/1999/xlink" width="65px" height="65px" viewBox="0 0 65 65" version="1.1">
<g id="surface1">
<path style=" stroke:none;fill-rule:nonzero;fill:rgb(92.54902%,81.176472%,44.705883%);fill-opacity:1;" d="M 31.460938 6.464844 C 31.535156 6.464844 31.609375 6.464844 31.683594 6.464844 C 32.132812 6.464844 32.578125 6.484375 33.027344 6.515625 C 33.273438 6.53125 33.519531 6.535156 33.769531 6.53125 C 33.808594 6.53125 33.851562 6.53125 33.898438 6.53125 C 34 6.53125 34.101562 6.53125 34.203125 6.527344 L 34.203125 6.644531 C 34.273438 6.625 34.273438 6.625 34.339844 6.609375 C 34.675781 6.574219 34.988281 6.65625 35.300781 6.761719 C 35.386719 6.761719 35.46875 6.761719 35.550781 6.757812 C 35.78125 6.753906 35.949219 6.796875 36.167969 6.875 C 36.320312 6.902344 36.476562 6.917969 36.632812 6.933594 C 36.835938 6.957031 37.007812 7 37.199219 7.078125 C 37.414062 7.164062 37.613281 7.191406 37.84375 7.203125 C 37.960938 7.222656 37.960938 7.222656 38.132812 7.339844 C 38.25 7.351562 38.363281 7.363281 38.476562 7.375 C 38.648438 7.40625 38.789062 7.488281 38.941406 7.570312 C 39.078125 7.589844 39.210938 7.609375 39.347656 7.625 C 39.402344 7.664062 39.460938 7.703125 39.519531 7.742188 C 39.574219 7.75 39.628906 7.757812 39.6875 7.769531 C 39.878906 7.804688 39.988281 7.871094 40.15625 7.972656 C 40.207031 7.980469 40.261719 7.988281 40.316406 8 C 40.53125 8.035156 40.699219 8.113281 40.898438 8.207031 C 41.03125 8.269531 41.03125 8.269531 41.207031 8.324219 C 41.386719 8.382812 41.546875 8.464844 41.714844 8.550781 C 41.757812 8.5625 41.796875 8.570312 41.839844 8.582031 C 41.945312 8.609375 41.945312 8.609375 42.054688 8.691406 C 42.261719 8.84375 42.507812 8.898438 42.753906 8.957031 L 42.753906 9.070312 L 42.929688 9.070312 L 42.929688 9.1875 L 43.21875 9.1875 L 43.21875 9.300781 C 43.277344 9.316406 43.339844 9.332031 43.402344 9.347656 C 43.648438 9.425781 43.828125 9.527344 44.03125 9.683594 C 44.148438 9.765625 44.234375 9.796875 44.375 9.824219 L 44.375 9.9375 L 44.523438 9.984375 C 44.714844 10.050781 44.890625 10.125 45.066406 10.226562 C 45.085938 10.285156 45.105469 10.339844 45.125 10.398438 C 45.289062 10.46875 45.289062 10.46875 45.472656 10.515625 C 45.527344 10.535156 45.585938 10.554688 45.644531 10.574219 L 45.644531 10.6875 C 45.71875 10.707031 45.796875 10.726562 45.875 10.746094 L 45.875 10.863281 L 46.164062 10.917969 L 46.164062 11.035156 C 46.199219 11.050781 46.230469 11.070312 46.265625 11.085938 L 46.625 11.265625 L 46.625 11.382812 L 46.800781 11.382812 L 46.800781 11.496094 C 46.84375 11.511719 46.886719 11.527344 46.929688 11.542969 C 47.082031 11.609375 47.195312 11.675781 47.320312 11.785156 L 47.320312 11.902344 C 47.375 11.917969 47.433594 11.929688 47.488281 11.945312 L 47.667969 12.019531 C 47.71875 12.140625 47.71875 12.140625 47.726562 12.25 C 47.800781 12.269531 47.878906 12.285156 47.957031 12.304688 L 47.957031 12.421875 C 48.011719 12.433594 48.011719 12.433594 48.066406 12.441406 C 48.105469 12.457031 48.144531 12.46875 48.1875 12.480469 C 48.207031 12.519531 48.226562 12.554688 48.246094 12.59375 C 48.292969 12.625 48.339844 12.652344 48.390625 12.679688 C 48.53125 12.769531 48.53125 12.769531 48.589844 12.941406 C 48.648438 12.953125 48.648438 12.953125 48.703125 12.964844 C 48.742188 12.976562 48.78125 12.988281 48.820312 13 L 48.9375 13.289062 C 49.054688 13.339844 49.054688 13.339844 49.167969 13.347656 L 49.167969 13.460938 C 49.226562 13.480469 49.28125 13.5 49.34375 13.519531 C 49.457031 13.636719 49.457031 13.636719 49.511719 13.753906 C 49.566406 13.886719 49.566406 13.886719 49.746094 13.925781 C 49.871094 14.035156 49.871094 14.035156 49.976562 14.15625 L 49.976562 14.269531 C 50.035156 14.289062 50.09375 14.308594 50.152344 14.328125 C 50.234375 14.40625 50.234375 14.40625 50.324219 14.5 C 50.378906 14.554688 50.378906 14.554688 50.4375 14.609375 C 50.5625 14.742188 50.671875 14.878906 50.785156 15.023438 C 50.914062 15.152344 51.039062 15.273438 51.171875 15.398438 C 51.304688 15.539062 51.324219 15.59375 51.363281 15.773438 C 51.421875 15.792969 51.480469 15.8125 51.539062 15.832031 L 51.59375 16.0625 C 51.652344 16.082031 51.710938 16.101562 51.769531 16.121094 C 51.867188 16.199219 51.867188 16.199219 51.941406 16.292969 L 51.941406 16.46875 C 52 16.484375 52.054688 16.503906 52.113281 16.523438 C 52.230469 16.699219 52.230469 16.699219 52.230469 16.871094 C 52.289062 16.890625 52.34375 16.910156 52.40625 16.929688 L 52.40625 17.101562 C 52.480469 17.140625 52.558594 17.179688 52.636719 17.21875 L 52.636719 17.332031 L 52.742188 17.4375 C 52.871094 17.570312 52.945312 17.691406 53.039062 17.851562 C 53.132812 17.988281 53.222656 18.125 53.316406 18.257812 C 53.386719 18.375 53.386719 18.375 53.386719 18.488281 C 53.425781 18.507812 53.464844 18.527344 53.503906 18.546875 C 53.570312 18.644531 53.570312 18.644531 53.644531 18.761719 C 53.667969 18.804688 53.691406 18.847656 53.71875 18.890625 C 53.742188 18.929688 53.765625 18.96875 53.792969 19.007812 L 53.894531 19.175781 C 53.964844 19.296875 53.964844 19.296875 53.964844 19.414062 C 54.003906 19.433594 54.042969 19.453125 54.082031 19.472656 C 54.140625 19.585938 54.199219 19.703125 54.253906 19.816406 C 54.292969 19.886719 54.335938 19.957031 54.375 20.023438 C 54.472656 20.199219 54.507812 20.320312 54.542969 20.511719 C 54.582031 20.53125 54.617188 20.550781 54.65625 20.566406 C 54.78125 20.753906 54.867188 20.941406 54.945312 21.148438 C 54.964844 21.183594 54.984375 21.222656 55.003906 21.261719 C 55.0625 21.378906 55.0625 21.378906 55.121094 21.527344 C 55.175781 21.675781 55.175781 21.675781 55.292969 21.839844 C 55.332031 21.9375 55.371094 22.03125 55.410156 22.128906 C 55.4375 22.195312 55.464844 22.261719 55.496094 22.332031 C 55.523438 22.398438 55.554688 22.464844 55.582031 22.535156 C 55.601562 22.578125 55.621094 22.621094 55.640625 22.667969 C 55.691406 22.8125 55.734375 22.953125 55.777344 23.101562 C 55.847656 23.335938 55.9375 23.542969 56.050781 23.757812 C 56.175781 24.011719 56.238281 24.285156 56.304688 24.558594 C 56.355469 24.753906 56.421875 24.945312 56.492188 25.132812 C 56.589844 25.414062 56.65625 25.691406 56.707031 25.984375 C 56.734375 26.117188 56.734375 26.117188 56.796875 26.234375 C 56.859375 26.359375 56.871094 26.445312 56.878906 26.585938 C 56.894531 26.785156 56.933594 26.960938 56.996094 27.152344 C 57.078125 27.402344 57.109375 27.632812 57.128906 27.894531 C 57.136719 28.03125 57.136719 28.03125 57.203125 28.203125 C 57.261719 28.378906 57.257812 28.519531 57.253906 28.703125 C 57.257812 28.894531 57.304688 29.078125 57.34375 29.265625 C 57.378906 29.4375 57.398438 29.613281 57.417969 29.789062 C 57.429688 29.90625 57.445312 30.023438 57.460938 30.140625 C 57.492188 30.378906 57.496094 30.617188 57.496094 30.859375 C 57.496094 31.050781 57.496094 31.238281 57.496094 31.429688 C 57.496094 31.53125 57.496094 31.632812 57.496094 31.734375 C 57.496094 31.945312 57.496094 32.15625 57.496094 32.367188 C 57.496094 32.636719 57.496094 32.910156 57.496094 33.179688 C 57.496094 33.390625 57.496094 33.597656 57.496094 33.804688 C 57.496094 33.90625 57.496094 34.007812 57.496094 34.105469 C 57.496094 34.246094 57.496094 34.382812 57.496094 34.523438 C 57.496094 34.566406 57.496094 34.605469 57.496094 34.648438 C 57.496094 34.824219 57.488281 34.960938 57.429688 35.128906 C 57.421875 35.207031 57.414062 35.289062 57.40625 35.367188 C 57.386719 35.550781 57.355469 35.734375 57.3125 35.914062 C 57.261719 36.117188 57.257812 36.296875 57.265625 36.507812 C 57.253906 36.71875 57.183594 36.914062 57.121094 37.117188 C 57.074219 37.277344 57.074219 37.277344 57.085938 37.480469 C 57.085938 37.691406 57.03125 37.820312 56.953125 38.011719 C 56.90625 38.140625 56.894531 38.257812 56.882812 38.398438 C 56.863281 38.644531 56.78125 38.832031 56.679688 39.058594 C 56.667969 39.136719 56.65625 39.214844 56.652344 39.292969 C 56.621094 39.523438 56.554688 39.660156 56.449219 39.867188 C 56.429688 40 56.410156 40.136719 56.390625 40.269531 L 56.277344 40.445312 C 56.253906 40.578125 56.234375 40.714844 56.21875 40.847656 L 56.101562 40.847656 C 56.105469 40.894531 56.113281 40.945312 56.117188 40.992188 C 56.101562 41.222656 56.035156 41.351562 55.925781 41.550781 C 55.859375 41.679688 55.835938 41.804688 55.8125 41.945312 C 55.777344 42.023438 55.738281 42.101562 55.699219 42.175781 C 55.65625 42.292969 55.617188 42.40625 55.582031 42.523438 L 55.464844 42.523438 C 55.464844 42.578125 55.460938 42.632812 55.457031 42.691406 C 55.410156 42.992188 55.261719 43.238281 55.121094 43.507812 C 55.046875 43.648438 54.976562 43.789062 54.90625 43.929688 C 54.871094 43.996094 54.839844 44.0625 54.804688 44.132812 C 54.730469 44.285156 54.664062 44.441406 54.601562 44.605469 C 54.449219 44.882812 54.449219 44.882812 54.3125 44.949219 C 54.269531 45.085938 54.230469 45.21875 54.195312 45.355469 L 54.082031 45.355469 L 54.082031 45.585938 L 53.964844 45.585938 C 53.949219 45.652344 53.9375 45.714844 53.921875 45.78125 C 53.847656 45.992188 53.847656 45.992188 53.730469 46.058594 C 53.691406 46.074219 53.65625 46.089844 53.617188 46.105469 C 53.582031 46.210938 53.582031 46.210938 53.558594 46.339844 C 53.472656 46.546875 53.367188 46.710938 53.21875 46.878906 C 53.03125 47.085938 52.921875 47.300781 52.808594 47.550781 L 52.695312 47.550781 L 52.695312 47.726562 L 52.578125 47.726562 C 52.558594 47.78125 52.539062 47.839844 52.519531 47.898438 L 52.40625 47.898438 C 52.398438 47.929688 52.390625 47.960938 52.386719 47.996094 C 52.320312 48.210938 52.214844 48.375 52.058594 48.53125 C 51.96875 48.640625 51.882812 48.746094 51.792969 48.851562 C 51.765625 48.882812 51.738281 48.910156 51.710938 48.9375 L 51.59375 48.9375 C 51.589844 48.96875 51.589844 49 51.585938 49.03125 C 51.496094 49.292969 51.289062 49.480469 51.09375 49.667969 C 50.976562 49.789062 50.90625 49.878906 50.84375 50.035156 L 50.730469 50.035156 C 50.710938 50.09375 50.691406 50.148438 50.671875 50.207031 C 50.625 50.226562 50.578125 50.246094 50.53125 50.261719 C 50.347656 50.335938 50.347656 50.382812 50.265625 50.554688 C 50.210938 50.628906 50.152344 50.703125 50.09375 50.773438 C 50.0625 50.808594 50.035156 50.84375 50.003906 50.878906 C 49.921875 50.960938 49.921875 50.960938 49.804688 50.960938 C 49.785156 51.015625 49.765625 51.074219 49.746094 51.132812 C 49.488281 51.363281 49.488281 51.363281 49.34375 51.363281 C 49.324219 51.421875 49.304688 51.480469 49.285156 51.539062 L 49.167969 51.539062 C 49.15625 51.582031 49.144531 51.625 49.132812 51.667969 C 49.03125 51.871094 48.898438 51.9375 48.707031 52.058594 C 48.667969 52.113281 48.628906 52.171875 48.589844 52.230469 L 48.417969 52.230469 C 48.378906 52.308594 48.339844 52.382812 48.300781 52.460938 L 48.128906 52.460938 C 48.117188 52.496094 48.101562 52.53125 48.089844 52.566406 C 47.992188 52.726562 47.882812 52.773438 47.726562 52.867188 C 47.6875 52.921875 47.648438 52.980469 47.609375 53.039062 C 47.550781 53.058594 47.496094 53.078125 47.4375 53.097656 L 47.320312 53.214844 C 47.21875 53.289062 47.113281 53.359375 47.011719 53.433594 C 46.90625 53.503906 46.90625 53.503906 46.800781 53.617188 C 46.71875 53.675781 46.636719 53.730469 46.554688 53.785156 L 46.414062 53.875 L 46.28125 53.964844 C 46.21875 54.003906 46.160156 54.046875 46.097656 54.085938 C 45.976562 54.167969 45.847656 54.242188 45.71875 54.316406 C 45.539062 54.410156 45.539062 54.410156 45.449219 54.507812 C 45.328125 54.628906 45.195312 54.695312 45.042969 54.777344 C 44.992188 54.804688 44.9375 54.835938 44.882812 54.867188 C 44.71875 54.945312 44.71875 54.945312 44.558594 55.007812 C 44.421875 55.050781 44.421875 55.050781 44.375 55.175781 L 44.027344 55.292969 C 44.007812 55.332031 43.988281 55.371094 43.96875 55.410156 C 43.855469 55.46875 43.855469 55.46875 43.710938 55.53125 L 43.570312 55.59375 C 43.449219 55.640625 43.449219 55.640625 43.332031 55.640625 L 43.332031 55.753906 C 43.277344 55.78125 43.21875 55.804688 43.160156 55.828125 C 43.003906 55.894531 42.851562 55.96875 42.699219 56.042969 C 42.488281 56.148438 42.277344 56.242188 42.0625 56.332031 C 42.023438 56.355469 41.984375 56.375 41.941406 56.398438 C 41.832031 56.449219 41.832031 56.449219 41.648438 56.476562 C 41.59375 56.488281 41.539062 56.496094 41.484375 56.507812 C 41.464844 56.542969 41.445312 56.582031 41.425781 56.621094 C 41.3125 56.664062 41.195312 56.703125 41.082031 56.738281 C 41.003906 56.777344 40.925781 56.8125 40.847656 56.855469 C 40.613281 56.957031 40.371094 57.027344 40.121094 57.097656 C 39.988281 57.140625 39.875 57.195312 39.75 57.257812 C 39.65625 57.277344 39.558594 57.296875 39.460938 57.316406 L 39.328125 57.371094 C 39.171875 57.429688 39.019531 57.476562 38.855469 57.523438 C 38.804688 57.535156 38.75 57.550781 38.695312 57.566406 C 38.59375 57.589844 38.488281 57.613281 38.382812 57.632812 C 38.242188 57.660156 38.242188 57.660156 38.09375 57.726562 C 38.050781 57.742188 38.003906 57.761719 37.960938 57.777344 C 37.921875 57.757812 37.882812 57.738281 37.84375 57.71875 L 37.84375 57.835938 C 37.8125 57.839844 37.777344 57.839844 37.746094 57.84375 C 37.457031 57.871094 37.199219 57.925781 36.917969 58.007812 C 36.859375 58.015625 36.796875 58.027344 36.730469 58.035156 C 36.546875 58.0625 36.382812 58.105469 36.203125 58.15625 C 35.972656 58.222656 35.785156 58.246094 35.546875 58.234375 C 35.308594 58.246094 35.078125 58.316406 34.851562 58.371094 C 34.476562 58.457031 34.113281 58.472656 33.730469 58.46875 C 33.570312 58.472656 33.414062 58.484375 33.253906 58.5 C 32.734375 58.542969 32.214844 58.539062 31.695312 58.535156 C 31.523438 58.535156 31.351562 58.535156 31.179688 58.535156 C 30.609375 58.539062 30.042969 58.527344 29.476562 58.503906 C 29.425781 58.5 29.375 58.5 29.320312 58.496094 C 28.765625 58.46875 28.238281 58.40625 27.699219 58.277344 C 27.492188 58.238281 27.304688 58.238281 27.097656 58.238281 C 27.054688 58.222656 27.007812 58.203125 26.964844 58.183594 C 26.8125 58.125 26.699219 58.113281 26.539062 58.097656 C 26.273438 58.078125 26.042969 58.015625 25.789062 57.933594 C 25.660156 57.894531 25.542969 57.878906 25.410156 57.863281 C 25.175781 57.832031 25.003906 57.757812 24.785156 57.660156 C 24.71875 57.652344 24.652344 57.644531 24.585938 57.632812 C 24.359375 57.601562 24.183594 57.523438 23.976562 57.429688 C 23.914062 57.417969 23.914062 57.417969 23.851562 57.40625 C 23.59375 57.351562 23.355469 57.25 23.109375 57.152344 C 22.878906 57.0625 22.664062 57.007812 22.417969 56.96875 C 22.128906 56.867188 21.855469 56.726562 21.582031 56.59375 C 21.378906 56.496094 21.195312 56.421875 20.972656 56.390625 L 20.972656 56.277344 C 20.65625 56.183594 20.65625 56.183594 20.335938 56.101562 L 20.335938 55.988281 C 20.304688 55.980469 20.273438 55.972656 20.238281 55.964844 C 20.089844 55.925781 19.96875 55.863281 19.832031 55.796875 C 19.78125 55.769531 19.730469 55.742188 19.679688 55.71875 C 19.628906 55.691406 19.578125 55.664062 19.527344 55.640625 C 19.445312 55.597656 19.363281 55.558594 19.285156 55.515625 C 19.246094 55.5 19.210938 55.480469 19.171875 55.460938 C 19.070312 55.410156 18.96875 55.363281 18.867188 55.316406 C 18.71875 55.234375 18.71875 55.234375 18.660156 55.121094 C 18.515625 55.082031 18.515625 55.082031 18.375 55.0625 L 18.375 54.945312 C 18.21875 54.882812 18.066406 54.824219 17.910156 54.773438 L 17.910156 54.65625 C 17.863281 54.644531 17.816406 54.632812 17.765625 54.621094 C 17.542969 54.535156 17.390625 54.421875 17.207031 54.273438 C 17.097656 54.183594 17.097656 54.183594 16.929688 54.136719 L 16.929688 54.023438 L 16.753906 54.023438 L 16.753906 53.90625 C 16.714844 53.902344 16.667969 53.898438 16.625 53.890625 C 16.4375 53.839844 16.367188 53.761719 16.234375 53.617188 C 16.199219 53.597656 16.160156 53.578125 16.121094 53.558594 L 16.121094 53.445312 C 16.058594 53.421875 16.058594 53.421875 15.996094 53.402344 C 15.808594 53.320312 15.683594 53.21875 15.53125 53.085938 C 15.324219 52.910156 15.113281 52.75 14.890625 52.597656 C 14.671875 52.449219 14.511719 52.296875 14.351562 52.089844 C 14.230469 51.953125 14.074219 51.867188 13.925781 51.769531 C 13.855469 51.6875 13.789062 51.601562 13.722656 51.515625 C 13.578125 51.359375 13.402344 51.242188 13.230469 51.117188 C 13.109375 51.011719 13.066406 50.929688 13 50.785156 C 12.960938 50.769531 12.925781 50.75 12.886719 50.734375 C 12.769531 50.671875 12.769531 50.671875 12.691406 50.539062 C 12.574219 50.34375 12.421875 50.234375 12.25 50.09375 C 12.074219 49.890625 12.074219 49.890625 12.074219 49.746094 C 12.019531 49.726562 11.960938 49.707031 11.902344 49.6875 C 11.722656 49.527344 11.597656 49.386719 11.496094 49.167969 L 11.324219 48.996094 L 11.324219 48.878906 C 11.265625 48.859375 11.210938 48.839844 11.152344 48.820312 C 11.070312 48.707031 10.996094 48.59375 10.917969 48.476562 L 10.804688 48.359375 L 10.6875 48.242188 L 10.6875 48.070312 L 10.574219 48.070312 L 10.574219 47.898438 L 10.457031 47.898438 L 10.457031 47.726562 L 10.34375 47.726562 C 10.257812 47.609375 10.257812 47.609375 10.160156 47.445312 C 9.980469 47.152344 9.785156 46.878906 9.574219 46.605469 C 9.46875 46.441406 9.414062 46.292969 9.359375 46.105469 L 9.246094 46.105469 L 9.246094 45.875 C 9.1875 45.855469 9.128906 45.835938 9.070312 45.816406 C 8.898438 45.515625 8.898438 45.515625 8.898438 45.355469 C 8.859375 45.335938 8.820312 45.316406 8.78125 45.296875 C 8.734375 45.210938 8.6875 45.121094 8.644531 45.03125 C 8.558594 44.851562 8.46875 44.675781 8.367188 44.507812 C 8.285156 44.355469 8.238281 44.25 8.195312 44.089844 C 8.179688 44.03125 8.164062 43.972656 8.144531 43.910156 C 8.109375 43.890625 8.070312 43.875 8.03125 43.851562 C 7.964844 43.714844 7.917969 43.578125 7.875 43.429688 C 7.859375 43.386719 7.84375 43.339844 7.828125 43.289062 C 7.816406 43.246094 7.800781 43.199219 7.789062 43.152344 C 7.75 43.035156 7.75 43.035156 7.625 42.988281 C 7.585938 42.890625 7.546875 42.796875 7.511719 42.699219 C 7.492188 42.652344 7.46875 42.605469 7.449219 42.558594 C 7.394531 42.410156 7.394531 42.410156 7.367188 42.222656 C 7.351562 42.144531 7.351562 42.144531 7.339844 42.0625 C 7.300781 42.042969 7.261719 42.023438 7.222656 42.003906 C 7.179688 41.898438 7.179688 41.898438 7.140625 41.765625 C 7.085938 41.597656 7.03125 41.441406 6.957031 41.277344 C 6.886719 41.105469 6.839844 40.945312 6.800781 40.761719 C 6.707031 40.421875 6.585938 40.085938 6.472656 39.75 C 6.40625 39.5625 6.367188 39.375 6.328125 39.183594 C 6.296875 39.046875 6.296875 39.046875 6.238281 38.882812 C 6.210938 38.769531 6.179688 38.65625 6.152344 38.542969 C 6.136719 38.480469 6.125 38.421875 6.109375 38.359375 C 6.09375 38.304688 6.082031 38.25 6.066406 38.191406 L 6.035156 38.066406 C 6 37.921875 5.988281 37.773438 5.96875 37.625 C 5.953125 37.5 5.925781 37.378906 5.898438 37.261719 C 5.828125 36.960938 5.789062 36.660156 5.75 36.355469 C 5.722656 36.164062 5.722656 36.164062 5.65625 35.964844 C 5.59375 35.71875 5.601562 35.5 5.609375 35.25 C 5.609375 34.984375 5.578125 34.726562 5.546875 34.460938 C 5.488281 33.863281 5.472656 33.265625 5.472656 32.664062 C 5.472656 32.5 5.472656 32.335938 5.472656 32.171875 C 5.472656 31.574219 5.5 30.984375 5.5625 30.390625 C 5.59375 30.109375 5.609375 29.839844 5.605469 29.558594 C 5.597656 29.292969 5.636719 29.085938 5.71875 28.832031 C 5.730469 28.738281 5.742188 28.644531 5.75 28.554688 C 5.78125 28.191406 5.835938 27.839844 5.953125 27.5 C 6 27.351562 6.019531 27.242188 6.035156 27.089844 C 6.066406 26.757812 6.152344 26.4375 6.238281 26.117188 L 6.285156 25.953125 C 6.3125 25.847656 6.339844 25.742188 6.371094 25.636719 C 6.398438 25.53125 6.425781 25.425781 6.453125 25.320312 C 6.539062 25 6.636719 24.699219 6.769531 24.398438 C 6.820312 24.269531 6.820312 24.269531 6.84375 24.125 C 6.878906 23.953125 6.945312 23.800781 7.015625 23.636719 C 7.101562 23.445312 7.179688 23.253906 7.234375 23.050781 C 7.28125 22.878906 7.28125 22.878906 7.394531 22.707031 C 7.433594 22.59375 7.472656 22.476562 7.511719 22.359375 C 7.648438 22.023438 7.808594 21.703125 7.972656 21.378906 L 8.183594 20.960938 C 8.214844 20.898438 8.25 20.832031 8.28125 20.765625 C 8.351562 20.628906 8.410156 20.488281 8.46875 20.34375 C 8.550781 20.164062 8.550781 20.164062 8.667969 20.105469 L 8.667969 19.933594 L 8.78125 19.933594 C 8.820312 19.800781 8.859375 19.667969 8.898438 19.527344 L 9.011719 19.527344 C 9.027344 19.480469 9.042969 19.433594 9.058594 19.382812 C 9.140625 19.152344 9.246094 18.9375 9.359375 18.71875 L 9.476562 18.71875 C 9.496094 18.644531 9.511719 18.566406 9.535156 18.488281 L 9.648438 18.488281 C 9.65625 18.453125 9.664062 18.417969 9.675781 18.382812 C 9.699219 18.28125 9.730469 18.183594 9.765625 18.085938 L 9.878906 18.085938 C 9.949219 17.949219 10.003906 17.824219 10.054688 17.679688 L 10.167969 17.679688 C 10.183594 17.640625 10.195312 17.597656 10.210938 17.558594 C 10.292969 17.367188 10.394531 17.210938 10.515625 17.042969 L 10.632812 17.042969 C 10.660156 16.976562 10.660156 16.976562 10.683594 16.90625 C 10.746094 16.753906 10.746094 16.753906 10.804688 16.640625 L 10.917969 16.640625 C 10.9375 16.582031 10.957031 16.523438 10.976562 16.46875 L 11.09375 16.46875 L 11.09375 16.292969 C 11.160156 16.226562 11.226562 16.15625 11.296875 16.089844 C 11.390625 15.996094 11.46875 15.894531 11.546875 15.785156 C 11.8125 15.425781 12.109375 15.105469 12.421875 14.792969 L 12.539062 14.617188 L 12.652344 14.617188 C 12.671875 14.558594 12.691406 14.503906 12.710938 14.445312 L 12.828125 14.445312 C 12.847656 14.386719 12.863281 14.328125 12.886719 14.269531 C 12.96875 14.199219 13.050781 14.128906 13.136719 14.058594 C 13.332031 13.898438 13.5 13.710938 13.675781 13.53125 C 13.808594 13.40625 13.808594 13.40625 13.925781 13.40625 L 13.925781 13.289062 C 14.003906 13.210938 14.003906 13.210938 14.109375 13.125 C 14.324219 12.949219 14.519531 12.761719 14.707031 12.554688 C 14.804688 12.46875 14.90625 12.421875 15.023438 12.363281 C 15.039062 12.328125 15.058594 12.289062 15.078125 12.25 C 15.136719 12.230469 15.195312 12.210938 15.253906 12.191406 C 15.273438 12.152344 15.292969 12.113281 15.3125 12.074219 C 15.367188 12.054688 15.425781 12.039062 15.484375 12.019531 C 15.5625 11.941406 15.640625 11.863281 15.714844 11.785156 C 15.792969 11.726562 15.871094 11.671875 15.945312 11.613281 L 16.058594 11.527344 C 16.265625 11.371094 16.472656 11.226562 16.699219 11.09375 C 16.734375 11.054688 16.773438 11.015625 16.8125 10.976562 C 16.910156 10.9375 17.003906 10.898438 17.101562 10.863281 L 17.101562 10.746094 L 17.273438 10.746094 L 17.273438 10.632812 L 17.507812 10.632812 L 17.507812 10.515625 L 17.621094 10.515625 C 17.640625 10.476562 17.660156 10.4375 17.679688 10.398438 C 17.761719 10.351562 17.847656 10.304688 17.933594 10.257812 C 18.109375 10.167969 18.238281 10.082031 18.375 9.9375 C 18.496094 9.871094 18.613281 9.816406 18.746094 9.769531 C 18.898438 9.707031 18.898438 9.707031 19.042969 9.613281 C 19.183594 9.535156 19.183594 9.535156 19.355469 9.535156 L 19.355469 9.417969 C 19.394531 9.402344 19.433594 9.390625 19.472656 9.375 C 19.6875 9.285156 19.898438 9.175781 20.105469 9.070312 L 20.453125 8.898438 L 20.640625 8.796875 C 20.695312 8.773438 20.746094 8.75 20.800781 8.722656 C 20.835938 8.742188 20.875 8.761719 20.914062 8.78125 L 20.914062 8.667969 C 21.203125 8.550781 21.203125 8.550781 21.339844 8.496094 C 21.460938 8.449219 21.578125 8.398438 21.695312 8.347656 C 21.972656 8.230469 22.246094 8.125 22.535156 8.03125 C 22.675781 7.976562 22.816406 7.917969 22.957031 7.859375 C 23.121094 7.796875 23.289062 7.753906 23.460938 7.714844 C 23.582031 7.683594 23.582031 7.683594 23.726562 7.621094 C 23.863281 7.570312 23.863281 7.570312 24.03125 7.542969 C 24.214844 7.519531 24.214844 7.519531 24.382812 7.425781 C 24.5625 7.335938 24.703125 7.308594 24.902344 7.28125 C 24.980469 7.261719 25.054688 7.242188 25.132812 7.222656 C 25.269531 7.1875 25.402344 7.15625 25.542969 7.136719 C 25.738281 7.101562 25.925781 7.046875 26.117188 6.992188 C 26.25 6.953125 26.347656 6.933594 26.488281 6.9375 C 26.660156 6.933594 26.765625 6.882812 26.925781 6.816406 C 27.164062 6.773438 27.402344 6.753906 27.644531 6.734375 C 27.839844 6.71875 28.023438 6.691406 28.214844 6.640625 C 28.414062 6.589844 28.570312 6.582031 28.773438 6.585938 C 28.820312 6.578125 28.863281 6.566406 28.910156 6.558594 C 29.0625 6.527344 29.191406 6.523438 29.34375 6.527344 C 29.597656 6.53125 29.84375 6.519531 30.097656 6.5 C 30.550781 6.46875 31.003906 6.460938 31.460938 6.464844 M 31.460938 6.464844 "/>
<path style=" stroke:none;fill-rule:nonzero;fill:rgb(0%,0%,0%);fill-opacity:1;" d="M 22.359375 13.980469 L 27.445312 13.980469 L 27.445312 30.273438 C 27.824219 30.066406 28.207031 29.855469 28.601562 29.640625 C 28.804688 29.542969 28.996094 29.449219 29.207031 29.367188 C 29.257812 29.34375 29.308594 29.324219 29.363281 29.304688 C 32.234375 28.195312 35.292969 28.421875 38.078125 29.644531 C 39.695312 30.390625 41.121094 31.632812 42.175781 33.046875 C 42.214844 33.097656 42.25 33.144531 42.289062 33.195312 C 43.925781 35.449219 44.644531 38.339844 44.242188 41.101562 C 44.214844 41.289062 44.179688 41.472656 44.140625 41.65625 C 44.132812 41.699219 44.125 41.738281 44.117188 41.78125 C 43.695312 43.804688 42.695312 45.632812 41.273438 47.121094 C 41.199219 47.203125 41.125 47.28125 41.046875 47.363281 C 39.261719 49.234375 36.554688 50.429688 33.972656 50.5 C 33.917969 50.5 33.859375 50.5 33.800781 50.503906 C 32.917969 50.523438 32.070312 50.492188 31.199219 50.324219 C 31.15625 50.316406 31.117188 50.308594 31.070312 50.300781 C 30.039062 50.097656 29.058594 49.730469 28.136719 49.226562 C 28.085938 49.199219 28.085938 49.199219 28.03125 49.167969 C 27.554688 48.910156 27.136719 48.625 26.691406 48.300781 C 26.671875 48.988281 26.65625 49.675781 26.636719 50.382812 L 22.359375 50.382812 Z M 22.359375 13.980469 "/>
<path style=" stroke:none;fill-rule:nonzero;fill:rgb(89.803922%,74.509805%,40.784314%);fill-opacity:1;" d="M 31.460938 6.464844 C 31.535156 6.464844 31.609375 6.464844 31.683594 6.464844 C 32.132812 6.464844 32.578125 6.484375 33.027344 6.515625 C 33.273438 6.53125 33.519531 6.535156 33.769531 6.53125 C 33.808594 6.53125 33.851562 6.53125 33.898438 6.53125 C 34 6.53125 34.101562 6.53125 34.203125 6.527344 L 34.203125 6.644531 C 34.273438 6.625 34.273438 6.625 34.339844 6.609375 C 34.675781 6.574219 34.988281 6.65625 35.300781 6.761719 C 35.386719 6.761719 35.46875 6.761719 35.550781 6.757812 C 35.78125 6.753906 35.949219 6.796875 36.167969 6.875 C 36.320312 6.902344 36.476562 6.917969 36.632812 6.933594 C 36.835938 6.957031 37.007812 7 37.199219 7.078125 C 37.414062 7.164062 37.613281 7.191406 37.84375 7.203125 C 37.960938 7.222656 37.960938 7.222656 38.132812 7.339844 C 38.25 7.351562 38.363281 7.363281 38.476562 7.375 C 38.648438 7.40625 38.789062 7.488281 38.941406 7.570312 C 39.078125 7.589844 39.210938 7.609375 39.347656 7.625 C 39.402344 7.664062 39.460938 7.703125 39.519531 7.742188 C 39.574219 7.75 39.628906 7.757812 39.6875 7.769531 C 39.878906 7.804688 39.988281 7.871094 40.15625 7.972656 C 40.207031 7.980469 40.261719 7.988281 40.316406 8 C 40.53125 8.035156 40.699219 8.113281 40.898438 8.207031 C 41.03125 8.269531 41.03125 8.269531 41.207031 8.324219 C 41.386719 8.382812 41.546875 8.464844 41.714844 8.550781 C 41.757812 8.5625 41.796875 8.570312 41.839844 8.582031 C 41.945312 8.609375 41.945312 8.609375 42.054688 8.691406 C 42.261719 8.84375 42.507812 8.898438 42.753906 8.957031 L 42.753906 9.070312 L 42.929688 9.070312 L 42.929688 9.1875 L 43.21875 9.1875 L 43.21875 9.300781 C 43.277344 9.316406 43.339844 9.332031 43.402344 9.347656 C 43.648438 9.425781 43.828125 9.527344 44.03125 9.683594 C 44.148438 9.765625 44.234375 9.796875 44.375 9.824219 L 44.375 9.9375 L 44.523438 9.984375 C 44.714844 10.050781 44.890625 10.125 45.066406 10.226562 C 45.085938 10.285156 45.105469 10.339844 45.125 10.398438 C 45.289062 10.46875 45.289062 10.46875 45.472656 10.515625 C 45.527344 10.535156 45.585938 10.554688 45.644531 10.574219 L 45.644531 10.6875 C 45.71875 10.707031 45.796875 10.726562 45.875 10.746094 L 45.875 10.863281 L 46.164062 10.917969 L 46.164062 11.035156 C 46.199219 11.050781 46.230469 11.070312 46.265625 11.085938 L 46.625 11.265625 L 46.625 11.382812 L 46.800781 11.382812 L 46.800781 11.496094 C 46.84375 11.511719 46.886719 11.527344 46.929688 11.542969 C 47.082031 11.609375 47.195312 11.675781 47.320312 11.785156 L 47.320312 11.902344 C 47.375 11.917969 47.433594 11.929688 47.488281 11.945312 L 47.667969 12.019531 C 47.71875 12.140625 47.71875 12.140625 47.726562 12.25 C 47.800781 12.269531 47.878906 12.285156 47.957031 12.304688 L 47.957031 12.421875 C 48.011719 12.433594 48.011719 12.433594 48.066406 12.441406 C 48.105469 12.457031 48.144531 12.46875 48.1875 12.480469 C 48.207031 12.519531 48.226562 12.554688 48.246094 12.59375 C 48.292969 12.625 48.339844 12.652344 48.390625 12.679688 C 48.53125 12.769531 48.53125 12.769531 48.589844 12.941406 C 48.648438 12.953125 48.648438 12.953125 48.703125 12.964844 C 48.742188 12.976562 48.78125 12.988281 48.820312 13 L 48.9375 13.289062 C 49.054688 13.339844 49.054688 13.339844 49.167969 13.347656 L 49.167969 13.460938 C 49.226562 13.480469 49.28125 13.5 49.34375 13.519531 C 49.457031 13.636719 49.457031 13.636719 49.511719 13.753906 C 49.566406 13.886719 49.566406 13.886719 49.746094 13.925781 C 49.871094 14.035156 49.871094 14.035156 49.976562 14.15625 L 49.976562 14.269531 C 50.035156 14.289062 50.09375 14.308594 50.152344 14.328125 C 50.234375 14.40625 50.234375 14.40625 50.324219 14.5 C 50.378906 14.554688 50.378906 14.554688 50.4375 14.609375 C 50.5625 14.742188 50.671875 14.878906 50.785156 15.023438 C 50.914062 15.152344 51.039062 15.273438 51.171875 15.398438 C 51.304688 15.539062 51.324219 15.59375 51.363281 15.773438 C 51.421875 15.792969 51.480469 15.8125 51.539062 15.832031 L 51.59375 16.0625 C 51.652344 16.082031 51.710938 16.101562 51.769531 16.121094 C 51.867188 16.199219 51.867188 16.199219 51.941406 16.292969 L 51.941406 16.46875 C 52 16.484375 52.054688 16.503906 52.113281 16.523438 C 52.230469 16.699219 52.230469 16.699219 52.230469 16.871094 C 52.289062 16.890625 52.34375 16.910156 52.40625 16.929688 L 52.40625 17.101562 C 52.480469 17.140625 52.558594 17.179688 52.636719 17.21875 L 52.636719 17.332031 L 52.742188 17.4375 C 52.871094 17.570312 52.945312 17.691406 53.039062 17.851562 C 53.132812 17.988281 53.222656 18.125 53.316406 18.257812 C 53.386719 18.375 53.386719 18.375 53.386719 18.488281 C 53.425781 18.507812 53.464844 18.527344 53.503906 18.546875 C 53.570312 18.644531 53.570312 18.644531 53.644531 18.761719 C 53.667969 18.804688 53.691406 18.847656 53.71875 18.890625 C 53.742188 18.929688 53.765625 18.96875 53.792969 19.007812 L 53.894531 19.175781 C 53.964844 19.296875 53.964844 19.296875 53.964844 19.414062 C 54.003906 19.433594 54.042969 19.453125 54.082031 19.472656 C 54.140625 19.585938 54.199219 19.703125 54.253906 19.816406 C 54.292969 19.886719 54.335938 19.957031 54.375 20.023438 C 54.472656 20.199219 54.507812 20.320312 54.542969 20.511719 C 54.582031 20.53125 54.617188 20.550781 54.65625 20.566406 C 54.78125 20.753906 54.867188 20.941406 54.945312 21.148438 C 54.964844 21.183594 54.984375 21.222656 55.003906 21.261719 C 55.0625 21.378906 55.0625 21.378906 55.121094 21.527344 C 55.175781 21.675781 55.175781 21.675781 55.292969 21.839844 C 55.332031 21.9375 55.371094 22.03125 55.410156 22.128906 C 55.4375 22.195312 55.464844 22.261719 55.496094 22.332031 C 55.523438 22.398438 55.554688 22.464844 55.582031 22.535156 C 55.601562 22.578125 55.621094 22.621094 55.640625 22.667969 C 55.691406 22.8125 55.734375 22.953125 55.777344 23.101562 C 55.847656 23.335938 55.9375 23.542969 56.050781 23.757812 C 56.175781 24.011719 56.238281 24.285156 56.304688 24.558594 C 56.355469 24.753906 56.421875 24.945312 56.492188 25.132812 C 56.589844 25.414062 56.65625 25.691406 56.707031 25.984375 C 56.734375 26.117188 56.734375 26.117188 56.796875 26.234375 C 56.859375 26.359375 56.871094 26.445312 56.878906 26.585938 C 56.894531 26.785156 56.933594 26.960938 56.996094 27.152344 C 57.078125 27.402344 57.109375 27.632812 57.128906 27.894531 C 57.136719 28.03125 57.136719 28.03125 57.203125 28.203125 C 57.261719 28.378906 57.257812 28.519531 57.253906 28.703125 C 57.257812 28.894531 57.304688 29.078125 57.34375 29.265625 C 57.378906 29.4375 57.398438 29.613281 57.417969 29.789062 C 57.429688 29.90625 57.445312 30.023438 57.460938 30.140625 C 57.492188 30.378906 57.496094 30.617188 57.496094 30.859375 C 57.496094 31.050781 57.496094 31.238281 57.496094 31.429688 C 57.496094 31.53125 57.496094 31.632812 57.496094 31.734375 C 57.496094 31.945312 57.496094 32.15625 57.496094 32.367188 C 57.496094 32.636719 57.496094 32.910156 57.496094 33.179688 C 57.496094 33.390625 57.496094 33.597656 57.496094 33.804688 C 57.496094 33.90625 57.496094 34.007812 57.496094 34.105469 C 57.496094 34.246094 57.496094 34.382812 57.496094 34.523438 C 57.496094 34.566406 57.496094 34.605469 57.496094 34.648438 C 57.496094 34.824219 57.488281 34.960938 57.429688 35.128906 C 57.421875 35.207031 57.414062 35.289062 57.40625 35.367188 C 57.386719 35.550781 57.355469 35.734375 57.3125 35.914062 C 57.261719 36.117188 57.257812 36.296875 57.265625 36.507812 C 57.253906 36.71875 57.183594 36.914062 57.121094 37.117188 C 57.074219 37.277344 57.074219 37.277344 57.085938 37.480469 C 57.085938 37.691406 57.03125 37.820312 56.953125 38.011719 C 56.90625 38.140625 56.894531 38.257812 56.882812 38.398438 C 56.863281 38.644531 56.78125 38.832031 56.679688 39.058594 C 56.667969 39.136719 56.65625 39.214844 56.652344 39.292969 C 56.621094 39.523438 56.554688 39.660156 56.449219 39.867188 C 56.429688 40 56.410156 40.136719 56.390625 40.269531 L 56.277344 40.445312 C 56.253906 40.578125 56.234375 40.714844 56.21875 40.847656 L 56.101562 40.847656 C 56.105469 40.894531 56.113281 40.945312 56.117188 40.992188 C 56.101562 41.222656 56.035156 41.351562 55.925781 41.550781 C 55.859375 41.679688 55.835938 41.804688 55.8125 41.945312 C 55.777344 42.023438 55.738281 42.101562 55.699219 42.175781 C 55.65625 42.292969 55.617188 42.40625 55.582031 42.523438 L 55.464844 42.523438 C 55.464844 42.578125 55.460938 42.632812 55.457031 42.691406 C 55.410156 42.992188 55.261719 43.238281 55.121094 43.507812 C 55.046875 43.648438 54.976562 43.789062 54.90625 43.929688 C 54.871094 43.996094 54.839844 44.0625 54.804688 44.132812 C 54.730469 44.285156 54.664062 44.441406 54.601562 44.605469 C 54.449219 44.882812 54.449219 44.882812 54.3125 44.949219 C 54.269531 45.085938 54.230469 45.21875 54.195312 45.355469 L 54.082031 45.355469 L 54.082031 45.585938 L 53.964844 45.585938 C 53.949219 45.652344 53.9375 45.714844 53.921875 45.78125 C 53.847656 45.992188 53.847656 45.992188 53.730469 46.058594 C 53.691406 46.074219 53.65625 46.089844 53.617188 46.105469 C 53.582031 46.210938 53.582031 46.210938 53.558594 46.339844 C 53.472656 46.546875 53.367188 46.710938 53.21875 46.878906 C 53.03125 47.085938 52.921875 47.300781 52.808594 47.550781 L 52.695312 47.550781 L 52.695312 47.726562 L 52.578125 47.726562 C 52.558594 47.78125 52.539062 47.839844 52.519531 47.898438 L 52.40625 47.898438 C 52.398438 47.929688 52.390625 47.960938 52.386719 47.996094 C 52.320312 48.210938 52.214844 48.375 52.058594 48.53125 C 51.96875 48.640625 51.882812 48.746094 51.792969 48.851562 C 51.765625 48.882812 51.738281 48.910156 51.710938 48.9375 L 51.59375 48.9375 C 51.589844 48.96875 51.589844 49 51.585938 49.03125 C 51.496094 49.292969 51.289062 49.480469 51.09375 49.667969 C 50.976562 49.789062 50.90625 49.878906 50.84375 50.035156 L 50.730469 50.035156 C 50.710938 50.09375 50.691406 50.148438 50.671875 50.207031 C 50.625 50.226562 50.578125 50.246094 50.53125 50.261719 C 50.347656 50.335938 50.347656 50.382812 50.265625 50.554688 C 50.210938 50.628906 50.152344 50.703125 50.09375 50.773438 C 50.0625 50.808594 50.035156 50.84375 50.003906 50.878906 C 49.921875 50.960938 49.921875 50.960938 49.804688 50.960938 C 49.785156 51.015625 49.765625 51.074219 49.746094 51.132812 C 49.488281 51.363281 49.488281 51.363281 49.34375 51.363281 C 49.324219 51.421875 49.304688 51.480469 49.285156 51.539062 L 49.167969 51.539062 C 49.15625 51.582031 49.144531 51.625 49.132812 51.667969 C 49.03125 51.871094 48.898438 51.9375 48.707031 52.058594 C 48.667969 52.113281 48.628906 52.171875 48.589844 52.230469 L 48.417969 52.230469 C 48.378906 52.308594 48.339844 52.382812 48.300781 52.460938 L 48.128906 52.460938 C 48.117188 52.496094 48.101562 52.53125 48.089844 52.566406 C 47.992188 52.726562 47.882812 52.773438 47.726562 52.867188 C 47.6875 52.921875 47.648438 52.980469 47.609375 53.039062 C 47.550781 53.058594 47.496094 53.078125 47.4375 53.097656 L 47.320312 53.214844 C 47.21875 53.289062 47.113281 53.359375 47.011719 53.433594 C 46.90625 53.503906 46.90625 53.503906 46.800781 53.617188 C 46.71875 53.675781 46.636719 53.730469 46.554688 53.785156 L 46.414062 53.875 L 46.28125 53.964844 C 46.21875 54.003906 46.160156 54.046875 46.097656 54.085938 C 45.976562 54.167969 45.847656 54.242188 45.71875 54.316406 C 45.539062 54.410156 45.539062 54.410156 45.449219 54.507812 C 45.328125 54.628906 45.195312 54.695312 45.042969 54.777344 C 44.992188 54.804688 44.9375 54.835938 44.882812 54.867188 C 44.71875 54.945312 44.71875 54.945312 44.558594 55.007812 C 44.421875 55.050781 44.421875 55.050781 44.375 55.175781 L 44.027344 55.292969 C 44.007812 55.332031 43.988281 55.371094 43.96875 55.410156 C 43.855469 55.46875 43.855469 55.46875 43.710938 55.53125 L 43.570312 55.59375 C 43.449219 55.640625 43.449219 55.640625 43.332031 55.640625 L 43.332031 55.753906 C 43.277344 55.78125 43.21875 55.804688 43.160156 55.828125 C 43.003906 55.894531 42.851562 55.96875 42.699219 56.042969 C 42.488281 56.148438 42.277344 56.242188 42.0625 56.332031 C 42.023438 56.355469 41.984375 56.375 41.941406 56.398438 C 41.832031 56.449219 41.832031 56.449219 41.648438 56.476562 C 41.59375 56.488281 41.539062 56.496094 41.484375 56.507812 C 41.464844 56.542969 41.445312 56.582031 41.425781 56.621094 C 41.3125 56.664062 41.195312 56.703125 41.082031 56.738281 C 41.003906 56.777344 40.925781 56.8125 40.847656 56.855469 C 40.613281 56.957031 40.371094 57.027344 40.121094 57.097656 C 39.988281 57.140625 39.875 57.195312 39.75 57.257812 C 39.65625 57.277344 39.558594 57.296875 39.460938 57.316406 L 39.328125 57.371094 C 39.171875 57.429688 39.019531 57.476562 38.855469 57.523438 C 38.804688 57.535156 38.75 57.550781 38.695312 57.566406 C 38.59375 57.589844 38.488281 57.613281 38.382812 57.632812 C 38.242188 57.660156 38.242188 57.660156 38.09375 57.726562 C 38.050781 57.742188 38.003906 57.761719 37.960938 57.777344 C 37.921875 57.757812 37.882812 57.738281 37.84375 57.71875 L 37.84375 57.835938 C 37.8125 57.839844 37.777344 57.839844 37.746094 57.84375 C 37.457031 57.871094 37.199219 57.925781 36.917969 58.007812 C 36.859375 58.015625 36.796875 58.027344 36.730469 58.035156 C 36.546875 58.0625 36.382812 58.105469 36.203125 58.15625 C 35.972656 58.222656 35.785156 58.246094 35.546875 58.234375 C 35.308594 58.246094 35.078125 58.316406 34.851562 58.371094 C 34.476562 58.457031 34.113281 58.472656 33.730469 58.46875 C 33.570312 58.472656 33.414062 58.484375 33.253906 58.5 C 32.734375 58.542969 32.214844 58.539062 31.695312 58.535156 C 31.523438 58.535156 31.351562 58.535156 31.179688 58.535156 C 30.609375 58.539062 30.042969 58.527344 29.476562 58.503906 C 29.425781 58.5 29.375 58.5 29.320312 58.496094 C 28.765625 58.46875 28.238281 58.40625 27.699219 58.277344 C 27.492188 58.238281 27.304688 58.238281 27.097656 58.238281 C 27.054688 58.222656 27.007812 58.203125 26.964844 58.183594 C 26.8125 58.125 26.699219 58.113281 26.539062 58.097656 C 26.273438 58.078125 26.042969 58.015625 25.789062 57.933594 C 25.660156 57.894531 25.542969 57.878906 25.410156 57.863281 C 25.175781 57.832031 25.003906 57.757812 24.785156 57.660156 C 24.71875 57.652344 24.652344 57.644531 24.585938 57.632812 C 24.359375 57.601562 24.183594 57.523438 23.976562 57.429688 C 23.914062 57.417969 23.914062 57.417969 23.851562 57.40625 C 23.59375 57.351562 23.355469 57.25 23.109375 57.152344 C 22.878906 57.0625 22.664062 57.007812 22.417969 56.96875 C 22.128906 56.867188 21.855469 56.726562 21.582031 56.59375 C 21.378906 56.496094 21.195312 56.421875 20.972656 56.390625 L 20.972656 56.277344 C 20.65625 56.183594 20.65625 56.183594 20.335938 56.101562 L 20.335938 55.988281 C 20.304688 55.980469 20.273438 55.972656 20.238281 55.964844 C 20.089844 55.925781 19.96875 55.863281 19.832031 55.796875 C 19.78125 55.769531 19.730469 55.742188 19.679688 55.71875 C 19.628906 55.691406 19.578125 55.664062 19.527344 55.640625 C 19.445312 55.597656 19.363281 55.558594 19.285156 55.515625 C 19.246094 55.5 19.210938 55.480469 19.171875 55.460938 C 19.070312 55.410156 18.96875 55.363281 18.867188 55.316406 C 18.71875 55.234375 18.71875 55.234375 18.660156 55.121094 C 18.515625 55.082031 18.515625 55.082031 18.375 55.0625 L 18.375 54.945312 C 18.21875 54.882812 18.066406 54.824219 17.910156 54.773438 L 17.910156 54.65625 C 17.863281 54.644531 17.816406 54.632812 17.765625 54.621094 C 17.542969 54.535156 17.390625 54.421875 17.207031 54.273438 C 17.097656 54.183594 17.097656 54.183594 16.929688 54.136719 L 16.929688 54.023438 L 16.753906 54.023438 L 16.753906 53.90625 C 16.714844 53.902344 16.667969 53.898438 16.625 53.890625 C 16.4375 53.839844 16.367188 53.761719 16.234375 53.617188 C 16.199219 53.597656 16.160156 53.578125 16.121094 53.558594 L 16.121094 53.445312 C 16.058594 53.421875 16.058594 53.421875 15.996094 53.402344 C 15.808594 53.320312 15.683594 53.21875 15.53125 53.085938 C 15.324219 52.910156 15.113281 52.75 14.890625 52.597656 C 14.671875 52.449219 14.511719 52.296875 14.351562 52.089844 C 14.230469 51.953125 14.074219 51.867188 13.925781 51.769531 C 13.855469 51.6875 13.789062 51.601562 13.722656 51.515625 C 13.578125 51.359375 13.402344 51.242188 13.230469 51.117188 C 13.109375 51.011719 13.066406 50.929688 13 50.785156 C 12.960938 50.769531 12.925781 50.75 12.886719 50.734375 C 12.769531 50.671875 12.769531 50.671875 12.691406 50.539062 C 12.574219 50.34375 12.421875 50.234375 12.25 50.09375 C 12.074219 49.890625 12.074219 49.890625 12.074219 49.746094 C 12.019531 49.726562 11.960938 49.707031 11.902344 49.6875 C 11.722656 49.527344 11.597656 49.386719 11.496094 49.167969 L 11.324219 48.996094 L 11.324219 48.878906 C 11.265625 48.859375 11.210938 48.839844 11.152344 48.820312 C 11.070312 48.707031 10.996094 48.59375 10.917969 48.476562 L 10.804688 48.359375 L 10.6875 48.242188 L 10.6875 48.070312 L 10.574219 48.070312 L 10.574219 47.898438 L 10.457031 47.898438 L 10.457031 47.726562 L 10.34375 47.726562 C 10.257812 47.609375 10.257812 47.609375 10.160156 47.445312 C 9.980469 47.152344 9.785156 46.878906 9.574219 46.605469 C 9.46875 46.441406 9.414062 46.292969 9.359375 46.105469 L 9.246094 46.105469 L 9.246094 45.875 C 9.1875 45.855469 9.128906 45.835938 9.070312 45.816406 C 8.898438 45.515625 8.898438 45.515625 8.898438 45.355469 C 8.859375 45.335938 8.820312 45.316406 8.78125 45.296875 C 8.734375 45.210938 8.6875 45.121094 8.644531 45.03125 C 8.558594 44.851562 8.46875 44.675781 8.367188 44.507812 C 8.285156 44.355469 8.238281 44.25 8.195312 44.089844 C 8.179688 44.03125 8.164062 43.972656 8.144531 43.910156 C 8.109375 43.890625 8.070312 43.875 8.03125 43.851562 C 7.964844 43.714844 7.917969 43.578125 7.875 43.429688 C 7.859375 43.386719 7.84375 43.339844 7.828125 43.289062 C 7.816406 43.246094 7.800781 43.199219 7.789062 43.152344 C 7.75 43.035156 7.75 43.035156 7.625 42.988281 C 7.585938 42.890625 7.546875 42.796875 7.511719 42.699219 C 7.492188 42.652344 7.46875 42.605469 7.449219 42.558594 C 7.394531 42.410156 7.394531 42.410156 7.367188 42.222656 C 7.351562 42.144531 7.351562 42.144531 7.339844 42.0625 C 7.300781 42.042969 7.261719 42.023438 7.222656 42.003906 C 7.179688 41.898438 7.179688 41.898438 7.140625 41.765625 C 7.085938 41.597656 7.03125 41.441406 6.957031 41.277344 C 6.886719 41.105469 6.839844 40.945312 6.800781 40.761719 C 6.707031 40.421875 6.585938 40.085938 6.472656 39.75 C 6.40625 39.5625 6.367188 39.375 6.328125 39.183594 C 6.296875 39.046875 6.296875 39.046875 6.238281 38.882812 C 6.210938 38.769531 6.179688 38.65625 6.152344 38.542969 C 6.136719 38.480469 6.125 38.421875 6.109375 38.359375 C 6.09375 38.304688 6.082031 38.25 6.066406 38.191406 L 6.035156 38.066406 C 6 37.921875 5.988281 37.773438 5.96875 37.625 C 5.953125 37.5 5.925781 37.378906 5.898438 37.261719 C 5.828125 36.960938 5.789062 36.660156 5.75 36.355469 C 5.722656 36.164062 5.722656 36.164062 5.65625 35.964844 C 5.59375 35.71875 5.601562 35.5 5.609375 35.25 C 5.609375 34.984375 5.578125 34.726562 5.546875 34.460938 C 5.488281 33.863281 5.472656 33.265625 5.472656 32.664062 C 5.472656 32.5 5.472656 32.335938 5.472656 32.171875 C 5.472656 31.574219 5.5 30.984375 5.5625 30.390625 C 5.59375 30.109375 5.609375 29.839844 5.605469 29.558594 C 5.597656 29.292969 5.636719 29.085938 5.71875 28.832031 C 5.730469 28.738281 5.742188 28.644531 5.75 28.554688 C 5.78125 28.191406 5.835938 27.839844 5.953125 27.5 C 6 27.351562 6.019531 27.242188 6.035156 27.089844 C 6.066406 26.757812 6.152344 26.4375 6.238281 26.117188 L 6.285156 25.953125 C 6.3125 25.847656 6.339844 25.742188 6.371094 25.636719 C 6.398438 25.53125 6.425781 25.425781 6.453125 25.320312 C 6.539062 25 6.636719 24.699219 6.769531 24.398438 C 6.820312 24.269531 6.820312 24.269531 6.84375 24.125 C 6.878906 23.953125 6.945312 23.800781 7.015625 23.636719 C 7.101562 23.445312 7.179688 23.253906 7.234375 23.050781 C 7.28125 22.878906 7.28125 22.878906 7.394531 22.707031 C 7.433594 22.59375 7.472656 22.476562 7.511719 22.359375 C 7.648438 22.023438 7.808594 21.703125 7.972656 21.378906 L 8.183594 20.960938 C 8.214844 20.898438 8.25 20.832031 8.28125 20.765625 C 8.351562 20.628906 8.410156 20.488281 8.46875 20.34375 C 8.550781 20.164062 8.550781 20.164062 8.667969 20.105469 L 8.667969 19.933594 L 8.78125 19.933594 C 8.820312 19.800781 8.859375 19.667969 8.898438 19.527344 L 9.011719 19.527344 C 9.027344 19.480469 9.042969 19.433594 9.058594 19.382812 C 9.140625 19.152344 9.246094 18.9375 9.359375 18.71875 L 9.476562 18.71875 C 9.496094 18.644531 9.511719 18.566406 9.535156 18.488281 L 9.648438 18.488281 C 9.65625 18.453125 9.664062 18.417969 9.675781 18.382812 C 9.699219 18.28125 9.730469 18.183594 9.765625 18.085938 L 9.878906 18.085938 C 9.949219 17.949219 10.003906 17.824219 10.054688 17.679688 L 10.167969 17.679688 C 10.183594 17.640625 10.195312 17.597656 10.210938 17.558594 C 10.292969 17.367188 10.394531 17.210938 10.515625 17.042969 L 10.632812 17.042969 C 10.660156 16.976562 10.660156 16.976562 10.683594 16.90625 C 10.746094 16.753906 10.746094 16.753906 10.804688 16.640625 L 10.917969 16.640625 C 10.9375 16.582031 10.957031 16.523438 10.976562 16.46875 L 11.09375 16.46875 L 11.09375 16.292969 C 11.160156 16.226562 11.226562 16.15625 11.296875 16.089844 C 11.390625 15.996094 11.46875 15.894531 11.546875 15.785156 C 11.8125 15.425781 12.109375 15.105469 12.421875 14.792969 L 12.539062 14.617188 L 12.652344 14.617188 C 12.671875 14.558594 12.691406 14.503906 12.710938 14.445312 L 12.828125 14.445312 C 12.847656 14.386719 12.863281 14.328125 12.886719 14.269531 C 12.96875 14.199219 13.050781 14.128906 13.136719 14.058594 C 13.332031 13.898438 13.5 13.710938 13.675781 13.53125 C 13.808594 13.40625 13.808594 13.40625 13.925781 13.40625 L 13.925781 13.289062 C 14.003906 13.210938 14.003906 13.210938 14.109375 13.125 C 14.324219 12.949219 14.519531 12.761719 14.707031 12.554688 C 14.804688 12.46875 14.90625 12.421875 15.023438 12.363281 C 15.039062 12.328125 15.058594 12.289062 15.078125 12.25 C 15.136719 12.230469 15.195312 12.210938 15.253906 12.191406 C 15.273438 12.152344 15.292969 12.113281 15.3125 12.074219 C 15.367188 12.054688 15.425781 12.039062 15.484375 12.019531 C 15.5625 11.941406 15.640625 11.863281 15.714844 11.785156 C 15.792969 11.726562 15.871094 11.671875 15.945312 11.613281 L 16.058594 11.527344 C 16.265625 11.371094 16.472656 11.226562 16.699219 11.09375 C 16.734375 11.054688 16.773438 11.015625 16.8125 10.976562 C 16.910156 10.9375 17.003906 10.898438 17.101562 10.863281 L 17.101562 10.746094 L 17.273438 10.746094 L 17.273438 10.632812 L 17.507812 10.632812 L 17.507812 10.515625 L 17.621094 10.515625 C 17.640625 10.476562 17.660156 10.4375 17.679688 10.398438 C 17.761719 10.351562 17.847656 10.304688 17.933594 10.257812 C 18.109375 10.167969 18.238281 10.082031 18.375 9.9375 C 18.496094 9.871094 18.613281 9.816406 18.746094 9.769531 C 18.898438 9.707031 18.898438 9.707031 19.042969 9.613281 C 19.183594 9.535156 19.183594 9.535156 19.355469 9.535156 L 19.355469 9.417969 C 19.394531 9.402344 19.433594 9.390625 19.472656 9.375 C 19.6875 9.285156 19.898438 9.175781 20.105469 9.070312 L 20.453125 8.898438 L 20.640625 8.796875 C 20.695312 8.773438 20.746094 8.75 20.800781 8.722656 C 20.835938 8.742188 20.875 8.761719 20.914062 8.78125 L 20.914062 8.667969 C 21.203125 8.550781 21.203125 8.550781 21.339844 8.496094 C 21.460938 8.449219 21.578125 8.398438 21.695312 8.347656 C 21.972656 8.230469 22.246094 8.125 22.535156 8.03125 C 22.675781 7.976562 22.816406 7.917969 22.957031 7.859375 C 23.121094 7.796875 23.289062 7.753906 23.460938 7.714844 C 23.582031 7.683594 23.582031 7.683594 23.726562 7.621094 C 23.863281 7.570312 23.863281 7.570312 24.03125 7.542969 C 24.214844 7.519531 24.214844 7.519531 24.382812 7.425781 C 24.5625 7.335938 24.703125 7.308594 24.902344 7.28125 C 24.980469 7.261719 25.054688 7.242188 25.132812 7.222656 C 25.269531 7.1875 25.402344 7.15625 25.542969 7.136719 C 25.738281 7.101562 25.925781 7.046875 26.117188 6.992188 C 26.25 6.953125 26.347656 6.933594 26.488281 6.9375 C 26.660156 6.933594 26.765625 6.882812 26.925781 6.816406 C 27.164062 6.773438 27.402344 6.753906 27.644531 6.734375 C 27.839844 6.71875 28.023438 6.691406 28.214844 6.640625 C 28.414062 6.589844 28.570312 6.582031 28.773438 6.585938 C 28.820312 6.578125 28.863281 6.566406 28.910156 6.558594 C 29.0625 6.527344 29.191406 6.523438 29.34375 6.527344 C 29.597656 6.53125 29.84375 6.519531 30.097656 6.5 C 30.550781 6.46875 31.003906 6.460938 31.460938 6.464844 M 25.4375 9.492188 C 25.292969 9.539062 25.144531 9.578125 24.996094 9.621094 C 24.257812 9.828125 23.53125 10.046875 22.824219 10.34375 C 22.785156 10.359375 22.746094 10.375 22.707031 10.390625 C 20.410156 11.332031 18.3125 12.59375 16.402344 14.179688 C 16.304688 14.261719 16.203125 14.34375 16.105469 14.425781 C 15.632812 14.8125 15.199219 15.238281 14.765625 15.671875 C 14.734375 15.703125 14.707031 15.734375 14.675781 15.761719 C 14.335938 16.101562 14.003906 16.445312 13.695312 16.8125 C 13.640625 16.871094 13.589844 16.929688 13.539062 16.992188 C 12.335938 18.390625 11.238281 19.964844 10.441406 21.632812 C 10.378906 21.765625 10.3125 21.894531 10.246094 22.023438 C 9.488281 23.464844 8.980469 25.027344 8.589844 26.601562 C 8.554688 26.730469 8.523438 26.863281 8.484375 26.988281 C 8.203125 28.039062 8.058594 29.136719 7.972656 30.21875 C 7.96875 30.28125 7.964844 30.34375 7.957031 30.410156 C 7.914062 31.019531 7.90625 31.625 7.90625 32.230469 C 7.90625 32.394531 7.902344 32.554688 7.902344 32.71875 C 7.898438 33.40625 7.941406 34.078125 8.015625 34.761719 C 8.035156 34.941406 8.050781 35.121094 8.066406 35.300781 C 8.285156 37.945312 9.226562 40.707031 10.457031 43.046875 C 10.519531 43.171875 10.585938 43.296875 10.648438 43.421875 C 11.382812 44.863281 12.304688 46.199219 13.347656 47.4375 C 13.390625 47.488281 13.390625 47.488281 13.4375 47.542969 C 13.8125 47.992188 14.199219 48.414062 14.617188 48.820312 C 14.785156 48.988281 14.949219 49.15625 15.113281 49.324219 C 15.546875 49.761719 15.980469 50.175781 16.46875 50.554688 C 16.535156 50.613281 16.605469 50.667969 16.671875 50.726562 C 17.253906 51.210938 17.859375 51.644531 18.488281 52.058594 L 18.625 52.148438 C 20.214844 53.191406 21.90625 54.007812 23.6875 54.65625 C 23.730469 54.671875 23.773438 54.6875 23.816406 54.703125 C 24.5625 54.980469 25.34375 55.160156 26.117188 55.351562 C 26.164062 55.363281 26.214844 55.375 26.265625 55.386719 C 27.269531 55.632812 28.296875 55.800781 29.332031 55.875 C 29.398438 55.878906 29.464844 55.886719 29.535156 55.890625 C 30.257812 55.941406 30.976562 55.953125 31.703125 55.953125 C 31.804688 55.953125 31.804688 55.953125 31.910156 55.953125 C 33.785156 55.949219 35.570312 55.714844 37.382812 55.234375 L 37.65625 55.167969 C 40.765625 54.375 43.695312 52.871094 46.191406 50.859375 C 46.273438 50.789062 46.359375 50.722656 46.445312 50.65625 C 46.804688 50.367188 47.148438 50.058594 47.484375 49.742188 C 47.644531 49.59375 47.804688 49.445312 47.96875 49.300781 C 48.351562 48.960938 48.714844 48.601562 49.050781 48.210938 C 49.144531 48.097656 49.242188 47.988281 49.339844 47.875 C 49.746094 47.414062 50.132812 46.945312 50.5 46.453125 C 50.542969 46.394531 50.585938 46.332031 50.632812 46.269531 C 51.910156 44.535156 52.957031 42.597656 53.6875 40.570312 C 53.730469 40.449219 53.777344 40.328125 53.824219 40.207031 C 54.269531 39.015625 54.578125 37.789062 54.816406 36.542969 C 54.832031 36.457031 54.832031 36.457031 54.847656 36.375 C 55.09375 35.027344 55.152344 33.675781 55.148438 32.308594 L 55.148438 32.179688 C 55.144531 30.816406 55.105469 29.476562 54.832031 28.136719 C 54.820312 28.089844 54.8125 28.042969 54.800781 27.992188 C 53.914062 23.695312 52.027344 19.683594 49.027344 16.453125 C 48.910156 16.324219 48.792969 16.195312 48.679688 16.0625 C 48.296875 15.621094 47.878906 15.210938 47.433594 14.832031 C 47.304688 14.71875 47.179688 14.605469 47.050781 14.488281 C 46.695312 14.164062 46.316406 13.871094 45.933594 13.578125 C 45.890625 13.546875 45.851562 13.515625 45.808594 13.480469 C 45.140625 12.972656 44.457031 12.507812 43.738281 12.074219 C 43.691406 12.046875 43.644531 12.019531 43.59375 11.988281 C 41.910156 10.984375 40.117188 10.234375 38.25 9.648438 C 38.175781 9.625 38.175781 9.625 38.101562 9.601562 C 37.148438 9.296875 36.171875 9.121094 35.1875 8.957031 C 35.125 8.945312 35.0625 8.933594 35 8.921875 C 33.886719 8.75 32.757812 8.699219 31.632812 8.703125 L 31.449219 8.703125 C 29.417969 8.707031 27.390625 8.910156 25.4375 9.492188 M 25.4375 9.492188 "/>
<path style=" stroke:none;fill-rule:nonzero;fill:rgb(95.294118%,87.843138%,48.627451%);fill-opacity:1;" d="M 33.296875 33.671875 C 33.390625 33.671875 33.390625 33.671875 33.484375 33.671875 C 34.089844 33.671875 34.664062 33.757812 35.242188 33.957031 C 35.308594 33.976562 35.308594 33.976562 35.375 34 C 36.886719 34.535156 38.019531 35.660156 38.726562 37.078125 C 39.328125 38.359375 39.480469 39.96875 39 41.3125 C 38.988281 41.347656 38.972656 41.382812 38.960938 41.421875 C 38.441406 42.894531 37.402344 44.152344 35.992188 44.839844 C 34.6875 45.441406 33.035156 45.695312 31.632812 45.257812 C 31.566406 45.234375 31.5 45.207031 31.429688 45.183594 L 31.316406 45.140625 C 29.773438 44.5625 28.601562 43.441406 27.902344 41.957031 C 27.273438 40.515625 27.242188 38.832031 27.804688 37.371094 C 28.527344 35.765625 29.699219 34.636719 31.316406 33.972656 C 31.984375 33.730469 32.589844 33.675781 33.296875 33.671875 M 33.296875 33.671875 "/>
<path style=" stroke:none;fill-rule:nonzero;fill:rgb(3.921569%,3.137255%,1.568628%);fill-opacity:1;" d="M 30.519531 8.367188 C 30.582031 8.367188 30.648438 8.367188 30.714844 8.367188 C 30.851562 8.367188 30.988281 8.367188 31.125 8.367188 C 31.328125 8.367188 31.53125 8.367188 31.734375 8.363281 C 32.933594 8.363281 34.125 8.429688 35.308594 8.628906 C 35.347656 8.632812 35.386719 8.640625 35.425781 8.644531 C 36.476562 8.816406 37.5 9.027344 38.507812 9.371094 C 38.664062 9.421875 38.820312 9.472656 38.976562 9.519531 C 39.855469 9.800781 40.699219 10.140625 41.542969 10.515625 C 41.589844 10.535156 41.636719 10.554688 41.683594 10.578125 C 44.253906 11.707031 46.59375 13.472656 48.570312 15.457031 C 48.660156 15.546875 48.75 15.636719 48.84375 15.726562 C 49.15625 16.039062 49.460938 16.359375 49.746094 16.699219 C 49.789062 16.75 49.789062 16.75 49.835938 16.804688 C 52.902344 20.464844 54.855469 24.929688 55.386719 29.675781 C 55.402344 29.820312 55.421875 29.964844 55.4375 30.113281 C 55.523438 30.828125 55.546875 31.539062 55.542969 32.261719 C 55.542969 32.347656 55.542969 32.347656 55.542969 32.4375 C 55.539062 33.402344 55.488281 34.347656 55.351562 35.300781 C 55.339844 35.378906 55.332031 35.453125 55.320312 35.53125 C 55.144531 36.785156 54.925781 38.019531 54.523438 39.222656 C 54.472656 39.378906 54.425781 39.542969 54.375 39.703125 C 53.664062 42.019531 52.539062 44.195312 51.132812 46.164062 L 51.035156 46.304688 C 50.59375 46.917969 50.136719 47.511719 49.632812 48.070312 C 49.585938 48.121094 49.542969 48.171875 49.496094 48.222656 C 49.113281 48.644531 48.71875 49.050781 48.316406 49.453125 C 48.214844 49.554688 48.113281 49.65625 48.015625 49.757812 C 47.628906 50.148438 47.230469 50.503906 46.800781 50.84375 C 46.726562 50.902344 46.65625 50.964844 46.582031 51.023438 C 45.179688 52.167969 43.636719 53.117188 42.007812 53.90625 C 41.882812 53.96875 41.761719 54.027344 41.636719 54.089844 C 40.972656 54.417969 40.289062 54.6875 39.59375 54.9375 C 39.453125 54.988281 39.316406 55.035156 39.179688 55.089844 C 38.601562 55.296875 38.023438 55.46875 37.425781 55.613281 C 37.378906 55.625 37.335938 55.636719 37.292969 55.648438 C 36.679688 55.796875 36.070312 55.933594 35.449219 56.039062 L 35.265625 56.074219 C 35.066406 56.105469 34.867188 56.132812 34.667969 56.160156 C 34.625 56.164062 34.585938 56.171875 34.546875 56.175781 C 33.628906 56.292969 32.707031 56.296875 31.785156 56.292969 C 31.613281 56.292969 31.445312 56.292969 31.273438 56.296875 C 30.234375 56.300781 29.226562 56.261719 28.195312 56.101562 C 28.117188 56.089844 28.039062 56.082031 27.964844 56.070312 C 25.542969 55.738281 23.085938 55.003906 20.925781 53.855469 C 20.78125 53.78125 20.636719 53.707031 20.492188 53.636719 C 19.023438 52.894531 17.660156 51.980469 16.394531 50.929688 C 16.304688 50.855469 16.21875 50.78125 16.125 50.710938 C 15.457031 50.179688 14.84375 49.574219 14.238281 48.96875 C 14.183594 48.914062 14.183594 48.914062 14.125 48.859375 C 12.800781 47.527344 11.683594 45.9375 10.746094 44.316406 L 10.671875 44.183594 C 9.160156 41.578125 8.207031 38.710938 7.773438 35.738281 C 7.753906 35.609375 7.734375 35.480469 7.714844 35.351562 C 7.371094 33.171875 7.453125 30.832031 7.800781 28.65625 L 7.832031 28.460938 C 8.351562 25.082031 9.652344 21.753906 11.613281 18.953125 C 11.636719 18.917969 11.660156 18.882812 11.683594 18.847656 C 12.328125 17.929688 13.011719 17.042969 13.777344 16.222656 C 13.894531 16.09375 14.011719 15.964844 14.125 15.832031 C 14.503906 15.394531 14.921875 14.980469 15.363281 14.609375 C 15.484375 14.5 15.605469 14.390625 15.722656 14.28125 C 17.300781 12.808594 19.199219 11.609375 21.148438 10.6875 C 21.191406 10.667969 21.238281 10.644531 21.289062 10.621094 C 23.339844 9.648438 25.535156 8.925781 27.789062 8.609375 C 27.898438 8.59375 28.003906 8.578125 28.109375 8.5625 C 28.222656 8.546875 28.332031 8.53125 28.445312 8.515625 C 28.519531 8.503906 28.519531 8.503906 28.597656 8.492188 C 29.234375 8.40625 29.875 8.371094 30.519531 8.367188 M 25.4375 9.492188 C 25.292969 9.539062 25.144531 9.578125 24.996094 9.621094 C 24.257812 9.828125 23.53125 10.046875 22.824219 10.34375 C 22.785156 10.359375 22.746094 10.375 22.707031 10.390625 C 20.410156 11.332031 18.3125 12.59375 16.402344 14.179688 C 16.304688 14.261719 16.203125 14.34375 16.105469 14.425781 C 15.632812 14.8125 15.199219 15.238281 14.765625 15.671875 C 14.734375 15.703125 14.707031 15.734375 14.675781 15.761719 C 14.335938 16.101562 14.003906 16.445312 13.695312 16.8125 C 13.640625 16.871094 13.589844 16.929688 13.539062 16.992188 C 12.335938 18.390625 11.238281 19.964844 10.441406 21.632812 C 10.378906 21.765625 10.3125 21.894531 10.246094 22.023438 C 9.488281 23.464844 8.980469 25.027344 8.589844 26.601562 C 8.554688 26.730469 8.523438 26.863281 8.484375 26.988281 C 8.203125 28.039062 8.058594 29.136719 7.972656 30.21875 C 7.96875 30.28125 7.964844 30.34375 7.957031 30.410156 C 7.914062 31.019531 7.90625 31.625 7.90625 32.230469 C 7.90625 32.394531 7.902344 32.554688 7.902344 32.71875 C 7.898438 33.40625 7.941406 34.078125 8.015625 34.761719 C 8.035156 34.941406 8.050781 35.121094 8.066406 35.300781 C 8.285156 37.945312 9.226562 40.707031 10.457031 43.046875 C 10.519531 43.171875 10.585938 43.296875 10.648438 43.421875 C 11.382812 44.863281 12.304688 46.199219 13.347656 47.4375 C 13.390625 47.488281 13.390625 47.488281 13.4375 47.542969 C 13.8125 47.992188 14.199219 48.414062 14.617188 48.820312 C 14.785156 48.988281 14.949219 49.15625 15.113281 49.324219 C 15.546875 49.761719 15.980469 50.175781 16.46875 50.554688 C 16.535156 50.613281 16.605469 50.667969 16.671875 50.726562 C 17.253906 51.210938 17.859375 51.644531 18.488281 52.058594 L 18.625 52.148438 C 20.214844 53.191406 21.90625 54.007812 23.6875 54.65625 C 23.730469 54.671875 23.773438 54.6875 23.816406 54.703125 C 24.5625 54.980469 25.34375 55.160156 26.117188 55.351562 C 26.164062 55.363281 26.214844 55.375 26.265625 55.386719 C 27.269531 55.632812 28.296875 55.800781 29.332031 55.875 C 29.398438 55.878906 29.464844 55.886719 29.535156 55.890625 C 30.257812 55.941406 30.976562 55.953125 31.703125 55.953125 C 31.804688 55.953125 31.804688 55.953125 31.910156 55.953125 C 33.785156 55.949219 35.570312 55.714844 37.382812 55.234375 L 37.65625 55.167969 C 40.765625 54.375 43.695312 52.871094 46.191406 50.859375 C 46.273438 50.789062 46.359375 50.722656 46.445312 50.65625 C 46.804688 50.367188 47.148438 50.058594 47.484375 49.742188 C 47.644531 49.59375 47.804688 49.445312 47.96875 49.300781 C 48.351562 48.960938 48.714844 48.601562 49.050781 48.210938 C 49.144531 48.097656 49.242188 47.988281 49.339844 47.875 C 49.746094 47.414062 50.132812 46.945312 50.5 46.453125 C 50.542969 46.394531 50.585938 46.332031 50.632812 46.269531 C 51.910156 44.535156 52.957031 42.597656 53.6875 40.570312 C 53.730469 40.449219 53.777344 40.328125 53.824219 40.207031 C 54.269531 39.015625 54.578125 37.789062 54.816406 36.542969 C 54.832031 36.457031 54.832031 36.457031 54.847656 36.375 C 55.09375 35.027344 55.152344 33.675781 55.148438 32.308594 L 55.148438 32.179688 C 55.144531 30.816406 55.105469 29.476562 54.832031 28.136719 C 54.820312 28.089844 54.8125 28.042969 54.800781 27.992188 C 53.914062 23.695312 52.027344 19.683594 49.027344 16.453125 C 48.910156 16.324219 48.792969 16.195312 48.679688 16.0625 C 48.296875 15.621094 47.878906 15.210938 47.433594 14.832031 C 47.304688 14.71875 47.179688 14.605469 47.050781 14.488281 C 46.695312 14.164062 46.316406 13.871094 45.933594 13.578125 C 45.890625 13.546875 45.851562 13.515625 45.808594 13.480469 C 45.140625 12.972656 44.457031 12.507812 43.738281 12.074219 C 43.691406 12.046875 43.644531 12.019531 43.59375 11.988281 C 41.910156 10.984375 40.117188 10.234375 38.25 9.648438 C 38.175781 9.625 38.175781 9.625 38.101562 9.601562 C 37.148438 9.296875 36.171875 9.121094 35.1875 8.957031 C 35.125 8.945312 35.0625 8.933594 35 8.921875 C 33.886719 8.75 32.757812 8.699219 31.632812 8.703125 L 31.449219 8.703125 C 29.417969 8.707031 27.390625 8.910156 25.4375 9.492188 M 25.4375 9.492188 "/>
<path style=" stroke:none;fill-rule:nonzero;fill:rgb(5.490196%,43.529412%,14.117648%);fill-opacity:1;" d="M 35.878906 15.3125 L 37.382812 15.3125 L 37.382812 15.425781 C 37.535156 15.445312 37.6875 15.464844 37.84375 15.484375 L 37.84375 15.601562 L 37.996094 15.640625 C 38.21875 15.726562 38.367188 15.847656 38.539062 16.007812 L 38.628906 16.09375 C 39.027344 16.476562 39.25 16.835938 39.371094 17.378906 C 39.390625 17.503906 39.390625 17.503906 39.460938 17.5625 C 39.554688 18.449219 39.386719 19.152344 38.875 19.882812 C 38.453125 20.375 37.882812 20.820312 37.226562 20.898438 C 35.964844 20.992188 35.964844 20.992188 35.417969 20.683594 L 35.183594 20.570312 C 34.585938 20.269531 34.101562 19.632812 33.882812 19 C 33.679688 18.371094 33.632812 17.675781 33.9375 17.078125 C 33.976562 17.007812 34.011719 16.941406 34.050781 16.875 C 34.152344 16.707031 34.152344 16.707031 34.171875 16.542969 C 34.21875 16.355469 34.308594 16.292969 34.457031 16.171875 C 34.644531 16.015625 34.644531 16.015625 34.816406 15.847656 C 34.929688 15.742188 35.039062 15.734375 35.1875 15.714844 L 35.1875 15.601562 C 35.269531 15.570312 35.351562 15.542969 35.4375 15.511719 L 35.574219 15.464844 C 35.707031 15.425781 35.707031 15.425781 35.878906 15.425781 Z M 35.878906 15.3125 "/>
<path style=" stroke:none;fill-rule:nonzero;fill:rgb(66.666669%,75.686276%,37.64706%);fill-opacity:1;" d="M 35.996094 20.859375 L 37.265625 20.859375 C 37.152344 20.914062 37.152344 20.914062 37.035156 20.972656 L 36.898438 21.066406 C 36.710938 21.164062 36.609375 21.175781 36.398438 21.148438 C 36.257812 21.078125 36.128906 21 35.996094 20.914062 Z M 35.996094 20.859375 "/>
<path style=" stroke:none;fill-rule:nonzero;fill:rgb(44.705883%,62.352943%,32.941177%);fill-opacity:1;" d="M 34.898438 15.773438 C 34.9375 15.792969 34.972656 15.8125 35.011719 15.832031 C 34.957031 15.851562 34.898438 15.871094 34.839844 15.890625 C 34.824219 15.921875 34.808594 15.957031 34.792969 15.992188 C 34.695312 16.175781 34.539062 16.277344 34.378906 16.410156 C 34.273438 16.535156 34.273438 16.535156 34.203125 16.640625 C 34.183594 16.582031 34.167969 16.523438 34.148438 16.46875 C 34.1875 16.429688 34.226562 16.394531 34.265625 16.359375 C 34.320312 16.3125 34.371094 16.265625 34.425781 16.21875 C 34.476562 16.171875 34.527344 16.125 34.582031 16.078125 C 34.691406 15.980469 34.792969 15.878906 34.898438 15.773438 M 34.898438 15.773438 "/>
<path style=" stroke:none;fill-rule:nonzero;fill:rgb(60.000002%,69.803923%,34.117648%);fill-opacity:1;" d="M 36.621094 15.128906 C 36.660156 15.152344 36.703125 15.171875 36.746094 15.195312 C 36.863281 15.21875 36.976562 15.238281 37.09375 15.253906 L 37.09375 15.3125 L 36.167969 15.3125 C 36.4375 15.042969 36.4375 15.042969 36.621094 15.128906 M 36.621094 15.128906 "/>
<path style=" stroke:none;fill-rule:nonzero;fill:rgb(100%,0%,0%);fill-opacity:1;" d="M 35.359375 6.703125 L 35.535156 6.761719 Z M 27.445312 6.703125 L 27.617188 6.761719 Z M 35.476562 58.238281 L 35.589844 58.296875 Z M 27.386719 58.238281 L 27.503906 58.296875 Z M 23.917969 7.511719 L 24.035156 7.570312 Z M 23.917969 7.511719 "/>
<path style=" stroke:none;fill-rule:nonzero;fill:rgb(100%,100%,0%);fill-opacity:1;" d="M 37.441406 7.105469 L 37.554688 7.164062 Z M 37.441406 7.105469 "/>
<path style=" stroke:none;fill-rule:nonzero;fill:rgb(100%,0%,0%);fill-opacity:1;" d="M 25.421875 7.105469 L 25.539062 7.164062 Z M 25.421875 7.105469 "/>
<path style=" stroke:none;fill-rule:nonzero;fill:rgb(100%,49.803922%,0%);fill-opacity:1;" d="M 26.460938 6.875 L 26.578125 6.933594 Z M 26.460938 6.875 "/>
</g>
</svg>
